<?xml version="1.0" encoding="UTF-8" standalone="no"?>
<!DOCTYPE svg PUBLIC "-//W3C//DTD SVG 1.1//EN"
 "http://www.w3.org/Graphics/SVG/1.1/DTD/svg11.dtd">
<!-- Generated by graphviz version 2.40.1 (20161225.0304)
 -->
<!-- Title: Tree Pages: 1 -->
<svg width="1597pt" height="1266pt"
 viewBox="0.00 0.00 1596.50 1266.00" xmlns="http://www.w3.org/2000/svg" xmlns:xlink="http://www.w3.org/1999/xlink">
<g id="graph0" class="graph" transform="scale(1 1) rotate(0) translate(4 1262)">
<title>Tree</title>
<polygon fill="#ffffff" stroke="transparent" points="-4,4 -4,-1262 1592.5,-1262 1592.5,4 -4,4"/>
<!-- 0 -->
<g id="node1" class="node">
<title>0</title>
<path fill="#e58139" fill-opacity="0.345098" stroke="#000000" d="M1331.5,-1258C1331.5,-1258 1166.5,-1258 1166.5,-1258 1160.5,-1258 1154.5,-1252 1154.5,-1246 1154.5,-1246 1154.5,-1187 1154.5,-1187 1154.5,-1181 1160.5,-1175 1166.5,-1175 1166.5,-1175 1331.5,-1175 1331.5,-1175 1337.5,-1175 1343.5,-1181 1343.5,-1187 1343.5,-1187 1343.5,-1246 1343.5,-1246 1343.5,-1252 1337.5,-1258 1331.5,-1258"/>
<text text-anchor="middle" x="1249" y="-1242.8" font-family="Helvetica,sans-Serif" font-size="14.00" fill="#000000">Blood.in.urine &lt;= 0.053</text>
<text text-anchor="middle" x="1249" y="-1227.8" font-family="Helvetica,sans-Serif" font-size="14.00" fill="#000000">gini = 0.6</text>
<text text-anchor="middle" x="1249" y="-1212.8" font-family="Helvetica,sans-Serif" font-size="14.00" fill="#000000">samples = 140</text>
<text text-anchor="middle" x="1249" y="-1197.8" font-family="Helvetica,sans-Serif" font-size="14.00" fill="#000000">value = [118, 64, 39]</text>
<text text-anchor="middle" x="1249" y="-1182.8" font-family="Helvetica,sans-Serif" font-size="14.00" fill="#000000">class = 0</text>
</g>
<!-- 1 -->
<g id="node2" class="node">
<title>1</title>
<path fill="#e58139" fill-opacity="0.741176" stroke="#000000" d="M1207.5,-1139C1207.5,-1139 1072.5,-1139 1072.5,-1139 1066.5,-1139 1060.5,-1133 1060.5,-1127 1060.5,-1127 1060.5,-1068 1060.5,-1068 1060.5,-1062 1066.5,-1056 1072.5,-1056 1072.5,-1056 1207.5,-1056 1207.5,-1056 1213.5,-1056 1219.5,-1062 1219.5,-1068 1219.5,-1068 1219.5,-1127 1219.5,-1127 1219.5,-1133 1213.5,-1139 1207.5,-1139"/>
<text text-anchor="middle" x="1140" y="-1123.8" font-family="Helvetica,sans-Serif" font-size="14.00" fill="#000000">Cancer &lt;= 1.122</text>
<text text-anchor="middle" x="1140" y="-1108.8" font-family="Helvetica,sans-Serif" font-size="14.00" fill="#000000">gini = 0.361</text>
<text text-anchor="middle" x="1140" y="-1093.8" font-family="Helvetica,sans-Serif" font-size="14.00" fill="#000000">samples = 97</text>
<text text-anchor="middle" x="1140" y="-1078.8" font-family="Helvetica,sans-Serif" font-size="14.00" fill="#000000">value = [118, 9, 24]</text>
<text text-anchor="middle" x="1140" y="-1063.8" font-family="Helvetica,sans-Serif" font-size="14.00" fill="#000000">class = 0</text>
</g>
<!-- 0&#45;&gt;1 -->
<g id="edge1" class="edge">
<title>0&#45;&gt;1</title>
<path fill="none" stroke="#000000" d="M1210.8771,-1174.8796C1202.5451,-1165.7832 1193.6502,-1156.0722 1185.0761,-1146.7116"/>
<polygon fill="#000000" stroke="#000000" points="1187.6211,-1144.3081 1178.2856,-1139.2981 1182.4592,-1149.0363 1187.6211,-1144.3081"/>
<text text-anchor="middle" x="1177.1902" y="-1160.5741" font-family="Helvetica,sans-Serif" font-size="14.00" fill="#000000">True</text>
</g>
<!-- 28 -->
<g id="node29" class="node">
<title>28</title>
<path fill="#39e581" fill-opacity="0.725490" stroke="#000000" d="M1430,-1139C1430,-1139 1288,-1139 1288,-1139 1282,-1139 1276,-1133 1276,-1127 1276,-1127 1276,-1068 1276,-1068 1276,-1062 1282,-1056 1288,-1056 1288,-1056 1430,-1056 1430,-1056 1436,-1056 1442,-1062 1442,-1068 1442,-1068 1442,-1127 1442,-1127 1442,-1133 1436,-1139 1430,-1139"/>
<text text-anchor="middle" x="1359" y="-1123.8" font-family="Helvetica,sans-Serif" font-size="14.00" fill="#000000">Previos.BC &lt;= 0.686</text>
<text text-anchor="middle" x="1359" y="-1108.8" font-family="Helvetica,sans-Serif" font-size="14.00" fill="#000000">gini = 0.337</text>
<text text-anchor="middle" x="1359" y="-1093.8" font-family="Helvetica,sans-Serif" font-size="14.00" fill="#000000">samples = 43</text>
<text text-anchor="middle" x="1359" y="-1078.8" font-family="Helvetica,sans-Serif" font-size="14.00" fill="#000000">value = [0, 55, 15]</text>
<text text-anchor="middle" x="1359" y="-1063.8" font-family="Helvetica,sans-Serif" font-size="14.00" fill="#000000">class = 1</text>
</g>
<!-- 0&#45;&gt;28 -->
<g id="edge28" class="edge">
<title>0&#45;&gt;28</title>
<path fill="none" stroke="#000000" d="M1287.4727,-1174.8796C1295.8811,-1165.7832 1304.8576,-1156.0722 1313.5103,-1146.7116"/>
<polygon fill="#000000" stroke="#000000" points="1316.1453,-1149.0172 1320.3631,-1139.2981 1311.005,-1144.2656 1316.1453,-1149.0172"/>
<text text-anchor="middle" x="1321.3449" y="-1160.5788" font-family="Helvetica,sans-Serif" font-size="14.00" fill="#000000">False</text>
</g>
<!-- 2 -->
<g id="node3" class="node">
<title>2</title>
<path fill="#e58139" fill-opacity="0.800000" stroke="#000000" d="M980,-1020C980,-1020 744,-1020 744,-1020 738,-1020 732,-1014 732,-1008 732,-1008 732,-949 732,-949 732,-943 738,-937 744,-937 744,-937 980,-937 980,-937 986,-937 992,-943 992,-949 992,-949 992,-1008 992,-1008 992,-1014 986,-1020 980,-1020"/>
<text text-anchor="middle" x="862" y="-1004.8" font-family="Helvetica,sans-Serif" font-size="14.00" fill="#000000">MCM.2.mean.std.panCK &lt;= 2.305</text>
<text text-anchor="middle" x="862" y="-989.8" font-family="Helvetica,sans-Serif" font-size="14.00" fill="#000000">gini = 0.3</text>
<text text-anchor="middle" x="862" y="-974.8" font-family="Helvetica,sans-Serif" font-size="14.00" fill="#000000">samples = 92</text>
<text text-anchor="middle" x="862" y="-959.8" font-family="Helvetica,sans-Serif" font-size="14.00" fill="#000000">value = [118, 6, 19]</text>
<text text-anchor="middle" x="862" y="-944.8" font-family="Helvetica,sans-Serif" font-size="14.00" fill="#000000">class = 0</text>
</g>
<!-- 1&#45;&gt;2 -->
<g id="edge2" class="edge">
<title>1&#45;&gt;2</title>
<path fill="none" stroke="#000000" d="M1060.3364,-1063.3994C1031.6917,-1051.1378 998.9083,-1037.1046 968.3552,-1024.0262"/>
<polygon fill="#000000" stroke="#000000" points="969.5224,-1020.7186 958.9519,-1020.001 966.7677,-1027.1539 969.5224,-1020.7186"/>
</g>
<!-- 23 -->
<g id="node24" class="node">
<title>23</title>
<path fill="#8139e5" fill-opacity="0.400000" stroke="#000000" d="M1258,-1020C1258,-1020 1022,-1020 1022,-1020 1016,-1020 1010,-1014 1010,-1008 1010,-1008 1010,-949 1010,-949 1010,-943 1016,-937 1022,-937 1022,-937 1258,-937 1258,-937 1264,-937 1270,-943 1270,-949 1270,-949 1270,-1008 1270,-1008 1270,-1014 1264,-1020 1258,-1020"/>
<text text-anchor="middle" x="1140" y="-1004.8" font-family="Helvetica,sans-Serif" font-size="14.00" fill="#000000">No..of.MCM2.panCk..ve &lt;= &#45;0.596</text>
<text text-anchor="middle" x="1140" y="-989.8" font-family="Helvetica,sans-Serif" font-size="14.00" fill="#000000">gini = 0.469</text>
<text text-anchor="middle" x="1140" y="-974.8" font-family="Helvetica,sans-Serif" font-size="14.00" fill="#000000">samples = 5</text>
<text text-anchor="middle" x="1140" y="-959.8" font-family="Helvetica,sans-Serif" font-size="14.00" fill="#000000">value = [0, 3, 5]</text>
<text text-anchor="middle" x="1140" y="-944.8" font-family="Helvetica,sans-Serif" font-size="14.00" fill="#000000">class = 2</text>
</g>
<!-- 1&#45;&gt;23 -->
<g id="edge23" class="edge">
<title>1&#45;&gt;23</title>
<path fill="none" stroke="#000000" d="M1140,-1055.8796C1140,-1047.6838 1140,-1038.9891 1140,-1030.5013"/>
<polygon fill="#000000" stroke="#000000" points="1143.5001,-1030.298 1140,-1020.2981 1136.5001,-1030.2981 1143.5001,-1030.298"/>
</g>
<!-- 3 -->
<g id="node4" class="node">
<title>3</title>
<path fill="#e58139" fill-opacity="0.823529" stroke="#000000" d="M781.5,-901C781.5,-901 540.5,-901 540.5,-901 534.5,-901 528.5,-895 528.5,-889 528.5,-889 528.5,-830 528.5,-830 528.5,-824 534.5,-818 540.5,-818 540.5,-818 781.5,-818 781.5,-818 787.5,-818 793.5,-824 793.5,-830 793.5,-830 793.5,-889 793.5,-889 793.5,-895 787.5,-901 781.5,-901"/>
<text text-anchor="middle" x="661" y="-885.8" font-family="Helvetica,sans-Serif" font-size="14.00" fill="#000000">MCM.2.mean.std.panCK &lt;= &#45;1.699</text>
<text text-anchor="middle" x="661" y="-870.8" font-family="Helvetica,sans-Serif" font-size="14.00" fill="#000000">gini = 0.275</text>
<text text-anchor="middle" x="661" y="-855.8" font-family="Helvetica,sans-Serif" font-size="14.00" fill="#000000">samples = 90</text>
<text text-anchor="middle" x="661" y="-840.8" font-family="Helvetica,sans-Serif" font-size="14.00" fill="#000000">value = [118, 6, 16]</text>
<text text-anchor="middle" x="661" y="-825.8" font-family="Helvetica,sans-Serif" font-size="14.00" fill="#000000">class = 0</text>
</g>
<!-- 2&#45;&gt;3 -->
<g id="edge3" class="edge">
<title>2&#45;&gt;3</title>
<path fill="none" stroke="#000000" d="M791.7,-936.8796C775.0221,-927.0056 757.121,-916.4075 740.0814,-906.3193"/>
<polygon fill="#000000" stroke="#000000" points="741.6485,-903.1797 731.2604,-901.0969 738.0823,-909.2032 741.6485,-903.1797"/>
</g>
<!-- 22 -->
<g id="node23" class="node">
<title>22</title>
<path fill="#8139e5" stroke="#000000" d="M932,-893.5C932,-893.5 824,-893.5 824,-893.5 818,-893.5 812,-887.5 812,-881.5 812,-881.5 812,-837.5 812,-837.5 812,-831.5 818,-825.5 824,-825.5 824,-825.5 932,-825.5 932,-825.5 938,-825.5 944,-831.5 944,-837.5 944,-837.5 944,-881.5 944,-881.5 944,-887.5 938,-893.5 932,-893.5"/>
<text text-anchor="middle" x="878" y="-878.3" font-family="Helvetica,sans-Serif" font-size="14.00" fill="#000000">gini = 0.0</text>
<text text-anchor="middle" x="878" y="-863.3" font-family="Helvetica,sans-Serif" font-size="14.00" fill="#000000">samples = 2</text>
<text text-anchor="middle" x="878" y="-848.3" font-family="Helvetica,sans-Serif" font-size="14.00" fill="#000000">value = [0, 0, 3]</text>
<text text-anchor="middle" x="878" y="-833.3" font-family="Helvetica,sans-Serif" font-size="14.00" fill="#000000">class = 2</text>
</g>
<!-- 2&#45;&gt;22 -->
<g id="edge22" class="edge">
<title>2&#45;&gt;22</title>
<path fill="none" stroke="#000000" d="M867.596,-936.8796C869.0301,-926.2134 870.5779,-914.7021 872.03,-903.9015"/>
<polygon fill="#000000" stroke="#000000" points="875.5224,-904.1922 873.3862,-893.8149 868.5848,-903.2593 875.5224,-904.1922"/>
</g>
<!-- 4 -->
<g id="node5" class="node">
<title>4</title>
<path fill="#39e581" stroke="#000000" d="M689,-774.5C689,-774.5 581,-774.5 581,-774.5 575,-774.5 569,-768.5 569,-762.5 569,-762.5 569,-718.5 569,-718.5 569,-712.5 575,-706.5 581,-706.5 581,-706.5 689,-706.5 689,-706.5 695,-706.5 701,-712.5 701,-718.5 701,-718.5 701,-762.5 701,-762.5 701,-768.5 695,-774.5 689,-774.5"/>
<text text-anchor="middle" x="635" y="-759.3" font-family="Helvetica,sans-Serif" font-size="14.00" fill="#000000">gini = 0.0</text>
<text text-anchor="middle" x="635" y="-744.3" font-family="Helvetica,sans-Serif" font-size="14.00" fill="#000000">samples = 1</text>
<text text-anchor="middle" x="635" y="-729.3" font-family="Helvetica,sans-Serif" font-size="14.00" fill="#000000">value = [0, 1, 0]</text>
<text text-anchor="middle" x="635" y="-714.3" font-family="Helvetica,sans-Serif" font-size="14.00" fill="#000000">class = 1</text>
</g>
<!-- 3&#45;&gt;4 -->
<g id="edge4" class="edge">
<title>3&#45;&gt;4</title>
<path fill="none" stroke="#000000" d="M651.9065,-817.8796C649.576,-807.2134 647.061,-795.7021 644.7012,-784.9015"/>
<polygon fill="#000000" stroke="#000000" points="648.0513,-783.8374 642.4974,-774.8149 641.2126,-785.3316 648.0513,-783.8374"/>
</g>
<!-- 5 -->
<g id="node6" class="node">
<title>5</title>
<path fill="#e58139" fill-opacity="0.827451" stroke="#000000" d="M873,-782C873,-782 731,-782 731,-782 725,-782 719,-776 719,-770 719,-770 719,-711 719,-711 719,-705 725,-699 731,-699 731,-699 873,-699 873,-699 879,-699 885,-705 885,-711 885,-711 885,-770 885,-770 885,-776 879,-782 873,-782"/>
<text text-anchor="middle" x="802" y="-766.8" font-family="Helvetica,sans-Serif" font-size="14.00" fill="#000000">Previos.BC &lt;= 0.686</text>
<text text-anchor="middle" x="802" y="-751.8" font-family="Helvetica,sans-Serif" font-size="14.00" fill="#000000">gini = 0.265</text>
<text text-anchor="middle" x="802" y="-736.8" font-family="Helvetica,sans-Serif" font-size="14.00" fill="#000000">samples = 89</text>
<text text-anchor="middle" x="802" y="-721.8" font-family="Helvetica,sans-Serif" font-size="14.00" fill="#000000">value = [118, 5, 16]</text>
<text text-anchor="middle" x="802" y="-706.8" font-family="Helvetica,sans-Serif" font-size="14.00" fill="#000000">class = 0</text>
</g>
<!-- 3&#45;&gt;5 -->
<g id="edge5" class="edge">
<title>3&#45;&gt;5</title>
<path fill="none" stroke="#000000" d="M710.315,-817.8796C721.4132,-808.513 733.2835,-798.4948 744.6777,-788.8784"/>
<polygon fill="#000000" stroke="#000000" points="747.0899,-791.4225 752.4746,-782.2981 742.575,-786.0731 747.0899,-791.4225"/>
</g>
<!-- 6 -->
<g id="node7" class="node">
<title>6</title>
<path fill="#e58139" fill-opacity="0.956863" stroke="#000000" d="M812.5,-663C812.5,-663 571.5,-663 571.5,-663 565.5,-663 559.5,-657 559.5,-651 559.5,-651 559.5,-592 559.5,-592 559.5,-586 565.5,-580 571.5,-580 571.5,-580 812.5,-580 812.5,-580 818.5,-580 824.5,-586 824.5,-592 824.5,-592 824.5,-651 824.5,-651 824.5,-657 818.5,-663 812.5,-663"/>
<text text-anchor="middle" x="692" y="-647.8" font-family="Helvetica,sans-Serif" font-size="14.00" fill="#000000">MCM.2.mean.std.panCK &lt;= &#45;0.633</text>
<text text-anchor="middle" x="692" y="-632.8" font-family="Helvetica,sans-Serif" font-size="14.00" fill="#000000">gini = 0.078</text>
<text text-anchor="middle" x="692" y="-617.8" font-family="Helvetica,sans-Serif" font-size="14.00" fill="#000000">samples = 77</text>
<text text-anchor="middle" x="692" y="-602.8" font-family="Helvetica,sans-Serif" font-size="14.00" fill="#000000">value = [118, 5, 0]</text>
<text text-anchor="middle" x="692" y="-587.8" font-family="Helvetica,sans-Serif" font-size="14.00" fill="#000000">class = 0</text>
</g>
<!-- 5&#45;&gt;6 -->
<g id="edge6" class="edge">
<title>5&#45;&gt;6</title>
<path fill="none" stroke="#000000" d="M763.5273,-698.8796C755.1189,-689.7832 746.1424,-680.0722 737.4897,-670.7116"/>
<polygon fill="#000000" stroke="#000000" points="739.995,-668.2656 730.6369,-663.2981 734.8547,-673.0172 739.995,-668.2656"/>
</g>
<!-- 21 -->
<g id="node22" class="node">
<title>21</title>
<path fill="#8139e5" stroke="#000000" d="M971.5,-655.5C971.5,-655.5 854.5,-655.5 854.5,-655.5 848.5,-655.5 842.5,-649.5 842.5,-643.5 842.5,-643.5 842.5,-599.5 842.5,-599.5 842.5,-593.5 848.5,-587.5 854.5,-587.5 854.5,-587.5 971.5,-587.5 971.5,-587.5 977.5,-587.5 983.5,-593.5 983.5,-599.5 983.5,-599.5 983.5,-643.5 983.5,-643.5 983.5,-649.5 977.5,-655.5 971.5,-655.5"/>
<text text-anchor="middle" x="913" y="-640.3" font-family="Helvetica,sans-Serif" font-size="14.00" fill="#000000">gini = 0.0</text>
<text text-anchor="middle" x="913" y="-625.3" font-family="Helvetica,sans-Serif" font-size="14.00" fill="#000000">samples = 12</text>
<text text-anchor="middle" x="913" y="-610.3" font-family="Helvetica,sans-Serif" font-size="14.00" fill="#000000">value = [0, 0, 16]</text>
<text text-anchor="middle" x="913" y="-595.3" font-family="Helvetica,sans-Serif" font-size="14.00" fill="#000000">class = 2</text>
</g>
<!-- 5&#45;&gt;21 -->
<g id="edge21" class="edge">
<title>5&#45;&gt;21</title>
<path fill="none" stroke="#000000" d="M840.8224,-698.8796C851.5921,-687.3337 863.2854,-674.7976 874.0617,-663.2446"/>
<polygon fill="#000000" stroke="#000000" points="876.7303,-665.5149 880.992,-655.8149 871.6115,-660.7402 876.7303,-665.5149"/>
</g>
<!-- 7 -->
<g id="node8" class="node">
<title>7</title>
<path fill="#e58139" fill-opacity="0.913725" stroke="#000000" d="M638.5,-544C638.5,-544 453.5,-544 453.5,-544 447.5,-544 441.5,-538 441.5,-532 441.5,-532 441.5,-473 441.5,-473 441.5,-467 447.5,-461 453.5,-461 453.5,-461 638.5,-461 638.5,-461 644.5,-461 650.5,-467 650.5,-473 650.5,-473 650.5,-532 650.5,-532 650.5,-538 644.5,-544 638.5,-544"/>
<text text-anchor="middle" x="546" y="-528.8" font-family="Helvetica,sans-Serif" font-size="14.00" fill="#000000">No..of.panCK..ve &lt;= 0.816</text>
<text text-anchor="middle" x="546" y="-513.8" font-family="Helvetica,sans-Serif" font-size="14.00" fill="#000000">gini = 0.147</text>
<text text-anchor="middle" x="546" y="-498.8" font-family="Helvetica,sans-Serif" font-size="14.00" fill="#000000">samples = 30</text>
<text text-anchor="middle" x="546" y="-483.8" font-family="Helvetica,sans-Serif" font-size="14.00" fill="#000000">value = [46, 4, 0]</text>
<text text-anchor="middle" x="546" y="-468.8" font-family="Helvetica,sans-Serif" font-size="14.00" fill="#000000">class = 0</text>
</g>
<!-- 6&#45;&gt;7 -->
<g id="edge7" class="edge">
<title>6&#45;&gt;7</title>
<path fill="none" stroke="#000000" d="M640.9363,-579.8796C629.4445,-570.513 617.1532,-560.4948 605.355,-550.8784"/>
<polygon fill="#000000" stroke="#000000" points="607.2444,-547.903 597.2817,-544.2981 602.8218,-553.329 607.2444,-547.903"/>
</g>
<!-- 16 -->
<g id="node17" class="node">
<title>16</title>
<path fill="#e58139" fill-opacity="0.984314" stroke="#000000" d="M997.5,-544C997.5,-544 680.5,-544 680.5,-544 674.5,-544 668.5,-538 668.5,-532 668.5,-532 668.5,-473 668.5,-473 668.5,-467 674.5,-461 680.5,-461 680.5,-461 997.5,-461 997.5,-461 1003.5,-461 1009.5,-467 1009.5,-473 1009.5,-473 1009.5,-532 1009.5,-532 1009.5,-538 1003.5,-544 997.5,-544"/>
<text text-anchor="middle" x="839" y="-528.8" font-family="Helvetica,sans-Serif" font-size="14.00" fill="#000000">No..of.Nucleus.without.coexpression &lt;= 2.31</text>
<text text-anchor="middle" x="839" y="-513.8" font-family="Helvetica,sans-Serif" font-size="14.00" fill="#000000">gini = 0.027</text>
<text text-anchor="middle" x="839" y="-498.8" font-family="Helvetica,sans-Serif" font-size="14.00" fill="#000000">samples = 47</text>
<text text-anchor="middle" x="839" y="-483.8" font-family="Helvetica,sans-Serif" font-size="14.00" fill="#000000">value = [72, 1, 0]</text>
<text text-anchor="middle" x="839" y="-468.8" font-family="Helvetica,sans-Serif" font-size="14.00" fill="#000000">class = 0</text>
</g>
<!-- 6&#45;&gt;16 -->
<g id="edge16" class="edge">
<title>6&#45;&gt;16</title>
<path fill="none" stroke="#000000" d="M743.4135,-579.8796C755.0952,-570.4229 767.5975,-560.302 779.581,-550.6011"/>
<polygon fill="#000000" stroke="#000000" points="781.7968,-553.3105 787.3671,-544.2981 777.3924,-547.8697 781.7968,-553.3105"/>
</g>
<!-- 8 -->
<g id="node9" class="node">
<title>8</title>
<path fill="#e58139" fill-opacity="0.850980" stroke="#000000" d="M479.5,-425C479.5,-425 238.5,-425 238.5,-425 232.5,-425 226.5,-419 226.5,-413 226.5,-413 226.5,-354 226.5,-354 226.5,-348 232.5,-342 238.5,-342 238.5,-342 479.5,-342 479.5,-342 485.5,-342 491.5,-348 491.5,-354 491.5,-354 491.5,-413 491.5,-413 491.5,-419 485.5,-425 479.5,-425"/>
<text text-anchor="middle" x="359" y="-409.8" font-family="Helvetica,sans-Serif" font-size="14.00" fill="#000000">MCM.2.mean.std.panCK &lt;= &#45;0.745</text>
<text text-anchor="middle" x="359" y="-394.8" font-family="Helvetica,sans-Serif" font-size="14.00" fill="#000000">gini = 0.225</text>
<text text-anchor="middle" x="359" y="-379.8" font-family="Helvetica,sans-Serif" font-size="14.00" fill="#000000">samples = 21</text>
<text text-anchor="middle" x="359" y="-364.8" font-family="Helvetica,sans-Serif" font-size="14.00" fill="#000000">value = [27, 4, 0]</text>
<text text-anchor="middle" x="359" y="-349.8" font-family="Helvetica,sans-Serif" font-size="14.00" fill="#000000">class = 0</text>
</g>
<!-- 7&#45;&gt;8 -->
<g id="edge8" class="edge">
<title>7&#45;&gt;8</title>
<path fill="none" stroke="#000000" d="M480.5965,-460.8796C465.2226,-451.0962 448.7315,-440.6019 433.0098,-430.5971"/>
<polygon fill="#000000" stroke="#000000" points="434.6823,-427.5129 424.3666,-425.0969 430.9241,-433.4185 434.6823,-427.5129"/>
</g>
<!-- 15 -->
<g id="node16" class="node">
<title>15</title>
<path fill="#e58139" stroke="#000000" d="M638.5,-417.5C638.5,-417.5 521.5,-417.5 521.5,-417.5 515.5,-417.5 509.5,-411.5 509.5,-405.5 509.5,-405.5 509.5,-361.5 509.5,-361.5 509.5,-355.5 515.5,-349.5 521.5,-349.5 521.5,-349.5 638.5,-349.5 638.5,-349.5 644.5,-349.5 650.5,-355.5 650.5,-361.5 650.5,-361.5 650.5,-405.5 650.5,-405.5 650.5,-411.5 644.5,-417.5 638.5,-417.5"/>
<text text-anchor="middle" x="580" y="-402.3" font-family="Helvetica,sans-Serif" font-size="14.00" fill="#000000">gini = 0.0</text>
<text text-anchor="middle" x="580" y="-387.3" font-family="Helvetica,sans-Serif" font-size="14.00" fill="#000000">samples = 9</text>
<text text-anchor="middle" x="580" y="-372.3" font-family="Helvetica,sans-Serif" font-size="14.00" fill="#000000">value = [19, 0, 0]</text>
<text text-anchor="middle" x="580" y="-357.3" font-family="Helvetica,sans-Serif" font-size="14.00" fill="#000000">class = 0</text>
</g>
<!-- 7&#45;&gt;15 -->
<g id="edge15" class="edge">
<title>7&#45;&gt;15</title>
<path fill="none" stroke="#000000" d="M557.8916,-460.8796C560.9705,-450.1034 564.2958,-438.4647 567.4092,-427.5677"/>
<polygon fill="#000000" stroke="#000000" points="570.8138,-428.3917 570.1957,-417.8149 564.0831,-426.4686 570.8138,-428.3917"/>
</g>
<!-- 9 -->
<g id="node10" class="node">
<title>9</title>
<path fill="#e58139" fill-opacity="0.964706" stroke="#000000" d="M371.5,-306C371.5,-306 130.5,-306 130.5,-306 124.5,-306 118.5,-300 118.5,-294 118.5,-294 118.5,-235 118.5,-235 118.5,-229 124.5,-223 130.5,-223 130.5,-223 371.5,-223 371.5,-223 377.5,-223 383.5,-229 383.5,-235 383.5,-235 383.5,-294 383.5,-294 383.5,-300 377.5,-306 371.5,-306"/>
<text text-anchor="middle" x="251" y="-290.8" font-family="Helvetica,sans-Serif" font-size="14.00" fill="#000000">MCM.2.mean.std.panCK &lt;= &#45;1.296</text>
<text text-anchor="middle" x="251" y="-275.8" font-family="Helvetica,sans-Serif" font-size="14.00" fill="#000000">gini = 0.069</text>
<text text-anchor="middle" x="251" y="-260.8" font-family="Helvetica,sans-Serif" font-size="14.00" fill="#000000">samples = 20</text>
<text text-anchor="middle" x="251" y="-245.8" font-family="Helvetica,sans-Serif" font-size="14.00" fill="#000000">value = [27, 1, 0]</text>
<text text-anchor="middle" x="251" y="-230.8" font-family="Helvetica,sans-Serif" font-size="14.00" fill="#000000">class = 0</text>
</g>
<!-- 8&#45;&gt;9 -->
<g id="edge9" class="edge">
<title>8&#45;&gt;9</title>
<path fill="none" stroke="#000000" d="M321.2268,-341.8796C312.9713,-332.7832 304.158,-323.0722 295.6626,-313.7116"/>
<polygon fill="#000000" stroke="#000000" points="298.2467,-311.3509 288.9344,-306.2981 293.0632,-316.0553 298.2467,-311.3509"/>
</g>
<!-- 14 -->
<g id="node15" class="node">
<title>14</title>
<path fill="#39e581" stroke="#000000" d="M522,-298.5C522,-298.5 414,-298.5 414,-298.5 408,-298.5 402,-292.5 402,-286.5 402,-286.5 402,-242.5 402,-242.5 402,-236.5 408,-230.5 414,-230.5 414,-230.5 522,-230.5 522,-230.5 528,-230.5 534,-236.5 534,-242.5 534,-242.5 534,-286.5 534,-286.5 534,-292.5 528,-298.5 522,-298.5"/>
<text text-anchor="middle" x="468" y="-283.3" font-family="Helvetica,sans-Serif" font-size="14.00" fill="#000000">gini = 0.0</text>
<text text-anchor="middle" x="468" y="-268.3" font-family="Helvetica,sans-Serif" font-size="14.00" fill="#000000">samples = 1</text>
<text text-anchor="middle" x="468" y="-253.3" font-family="Helvetica,sans-Serif" font-size="14.00" fill="#000000">value = [0, 3, 0]</text>
<text text-anchor="middle" x="468" y="-238.3" font-family="Helvetica,sans-Serif" font-size="14.00" fill="#000000">class = 1</text>
</g>
<!-- 8&#45;&gt;14 -->
<g id="edge14" class="edge">
<title>8&#45;&gt;14</title>
<path fill="none" stroke="#000000" d="M397.1229,-341.8796C407.6986,-330.3337 419.1812,-317.7976 429.7633,-306.2446"/>
<polygon fill="#000000" stroke="#000000" points="432.3951,-308.5531 436.5687,-298.8149 427.2333,-303.825 432.3951,-308.5531"/>
</g>
<!-- 10 -->
<g id="node11" class="node">
<title>10</title>
<path fill="#e58139" fill-opacity="0.498039" stroke="#000000" d="M261.5,-187C261.5,-187 20.5,-187 20.5,-187 14.5,-187 8.5,-181 8.5,-175 8.5,-175 8.5,-116 8.5,-116 8.5,-110 14.5,-104 20.5,-104 20.5,-104 261.5,-104 261.5,-104 267.5,-104 273.5,-110 273.5,-116 273.5,-116 273.5,-175 273.5,-175 273.5,-181 267.5,-187 261.5,-187"/>
<text text-anchor="middle" x="141" y="-171.8" font-family="Helvetica,sans-Serif" font-size="14.00" fill="#000000">MCM.2.mean.std.panCK &lt;= &#45;1.402</text>
<text text-anchor="middle" x="141" y="-156.8" font-family="Helvetica,sans-Serif" font-size="14.00" fill="#000000">gini = 0.444</text>
<text text-anchor="middle" x="141" y="-141.8" font-family="Helvetica,sans-Serif" font-size="14.00" fill="#000000">samples = 3</text>
<text text-anchor="middle" x="141" y="-126.8" font-family="Helvetica,sans-Serif" font-size="14.00" fill="#000000">value = [2, 1, 0]</text>
<text text-anchor="middle" x="141" y="-111.8" font-family="Helvetica,sans-Serif" font-size="14.00" fill="#000000">class = 0</text>
</g>
<!-- 9&#45;&gt;10 -->
<g id="edge10" class="edge">
<title>9&#45;&gt;10</title>
<path fill="none" stroke="#000000" d="M212.5273,-222.8796C204.1189,-213.7832 195.1424,-204.0722 186.4897,-194.7116"/>
<polygon fill="#000000" stroke="#000000" points="188.995,-192.2656 179.6369,-187.2981 183.8547,-197.0172 188.995,-192.2656"/>
</g>
<!-- 13 -->
<g id="node14" class="node">
<title>13</title>
<path fill="#e58139" stroke="#000000" d="M420.5,-179.5C420.5,-179.5 303.5,-179.5 303.5,-179.5 297.5,-179.5 291.5,-173.5 291.5,-167.5 291.5,-167.5 291.5,-123.5 291.5,-123.5 291.5,-117.5 297.5,-111.5 303.5,-111.5 303.5,-111.5 420.5,-111.5 420.5,-111.5 426.5,-111.5 432.5,-117.5 432.5,-123.5 432.5,-123.5 432.5,-167.5 432.5,-167.5 432.5,-173.5 426.5,-179.5 420.5,-179.5"/>
<text text-anchor="middle" x="362" y="-164.3" font-family="Helvetica,sans-Serif" font-size="14.00" fill="#000000">gini = 0.0</text>
<text text-anchor="middle" x="362" y="-149.3" font-family="Helvetica,sans-Serif" font-size="14.00" fill="#000000">samples = 17</text>
<text text-anchor="middle" x="362" y="-134.3" font-family="Helvetica,sans-Serif" font-size="14.00" fill="#000000">value = [25, 0, 0]</text>
<text text-anchor="middle" x="362" y="-119.3" font-family="Helvetica,sans-Serif" font-size="14.00" fill="#000000">class = 0</text>
</g>
<!-- 9&#45;&gt;13 -->
<g id="edge13" class="edge">
<title>9&#45;&gt;13</title>
<path fill="none" stroke="#000000" d="M289.8224,-222.8796C300.5921,-211.3337 312.2854,-198.7976 323.0617,-187.2446"/>
<polygon fill="#000000" stroke="#000000" points="325.7303,-189.5149 329.992,-179.8149 320.6115,-184.7402 325.7303,-189.5149"/>
</g>
<!-- 11 -->
<g id="node12" class="node">
<title>11</title>
<path fill="#e58139" stroke="#000000" d="M120,-68C120,-68 12,-68 12,-68 6,-68 0,-62 0,-56 0,-56 0,-12 0,-12 0,-6 6,0 12,0 12,0 120,0 120,0 126,0 132,-6 132,-12 132,-12 132,-56 132,-56 132,-62 126,-68 120,-68"/>
<text text-anchor="middle" x="66" y="-52.8" font-family="Helvetica,sans-Serif" font-size="14.00" fill="#000000">gini = 0.0</text>
<text text-anchor="middle" x="66" y="-37.8" font-family="Helvetica,sans-Serif" font-size="14.00" fill="#000000">samples = 2</text>
<text text-anchor="middle" x="66" y="-22.8" font-family="Helvetica,sans-Serif" font-size="14.00" fill="#000000">value = [2, 0, 0]</text>
<text text-anchor="middle" x="66" y="-7.8" font-family="Helvetica,sans-Serif" font-size="14.00" fill="#000000">class = 0</text>
</g>
<!-- 10&#45;&gt;11 -->
<g id="edge11" class="edge">
<title>10&#45;&gt;11</title>
<path fill="none" stroke="#000000" d="M113.0728,-103.9815C107.0762,-95.0666 100.7296,-85.6313 94.7041,-76.6734"/>
<polygon fill="#000000" stroke="#000000" points="97.5328,-74.6078 89.0473,-68.2637 91.7245,-78.5147 97.5328,-74.6078"/>
</g>
<!-- 12 -->
<g id="node13" class="node">
<title>12</title>
<path fill="#39e581" stroke="#000000" d="M270,-68C270,-68 162,-68 162,-68 156,-68 150,-62 150,-56 150,-56 150,-12 150,-12 150,-6 156,0 162,0 162,0 270,0 270,0 276,0 282,-6 282,-12 282,-12 282,-56 282,-56 282,-62 276,-68 270,-68"/>
<text text-anchor="middle" x="216" y="-52.8" font-family="Helvetica,sans-Serif" font-size="14.00" fill="#000000">gini = 0.0</text>
<text text-anchor="middle" x="216" y="-37.8" font-family="Helvetica,sans-Serif" font-size="14.00" fill="#000000">samples = 1</text>
<text text-anchor="middle" x="216" y="-22.8" font-family="Helvetica,sans-Serif" font-size="14.00" fill="#000000">value = [0, 1, 0]</text>
<text text-anchor="middle" x="216" y="-7.8" font-family="Helvetica,sans-Serif" font-size="14.00" fill="#000000">class = 1</text>
</g>
<!-- 10&#45;&gt;12 -->
<g id="edge12" class="edge">
<title>10&#45;&gt;12</title>
<path fill="none" stroke="#000000" d="M168.9272,-103.9815C174.9238,-95.0666 181.2704,-85.6313 187.2959,-76.6734"/>
<polygon fill="#000000" stroke="#000000" points="190.2755,-78.5147 192.9527,-68.2637 184.4672,-74.6078 190.2755,-78.5147"/>
</g>
<!-- 17 -->
<g id="node18" class="node">
<title>17</title>
<path fill="#e58139" stroke="#000000" d="M864.5,-417.5C864.5,-417.5 747.5,-417.5 747.5,-417.5 741.5,-417.5 735.5,-411.5 735.5,-405.5 735.5,-405.5 735.5,-361.5 735.5,-361.5 735.5,-355.5 741.5,-349.5 747.5,-349.5 747.5,-349.5 864.5,-349.5 864.5,-349.5 870.5,-349.5 876.5,-355.5 876.5,-361.5 876.5,-361.5 876.5,-405.5 876.5,-405.5 876.5,-411.5 870.5,-417.5 864.5,-417.5"/>
<text text-anchor="middle" x="806" y="-402.3" font-family="Helvetica,sans-Serif" font-size="14.00" fill="#000000">gini = 0.0</text>
<text text-anchor="middle" x="806" y="-387.3" font-family="Helvetica,sans-Serif" font-size="14.00" fill="#000000">samples = 38</text>
<text text-anchor="middle" x="806" y="-372.3" font-family="Helvetica,sans-Serif" font-size="14.00" fill="#000000">value = [61, 0, 0]</text>
<text text-anchor="middle" x="806" y="-357.3" font-family="Helvetica,sans-Serif" font-size="14.00" fill="#000000">class = 0</text>
</g>
<!-- 16&#45;&gt;17 -->
<g id="edge17" class="edge">
<title>16&#45;&gt;17</title>
<path fill="none" stroke="#000000" d="M827.4582,-460.8796C824.4699,-450.1034 821.2423,-438.4647 818.2205,-427.5677"/>
<polygon fill="#000000" stroke="#000000" points="821.561,-426.516 815.5159,-417.8149 814.8155,-428.3866 821.561,-426.516"/>
</g>
<!-- 18 -->
<g id="node19" class="node">
<title>18</title>
<path fill="#e58139" fill-opacity="0.909804" stroke="#000000" d="M1233,-425C1233,-425 907,-425 907,-425 901,-425 895,-419 895,-413 895,-413 895,-354 895,-354 895,-348 901,-342 907,-342 907,-342 1233,-342 1233,-342 1239,-342 1245,-348 1245,-354 1245,-354 1245,-413 1245,-413 1245,-419 1239,-425 1233,-425"/>
<text text-anchor="middle" x="1070" y="-409.8" font-family="Helvetica,sans-Serif" font-size="14.00" fill="#000000">No..of.Nucleus.without.coexpression &lt;= 2.436</text>
<text text-anchor="middle" x="1070" y="-394.8" font-family="Helvetica,sans-Serif" font-size="14.00" fill="#000000">gini = 0.153</text>
<text text-anchor="middle" x="1070" y="-379.8" font-family="Helvetica,sans-Serif" font-size="14.00" fill="#000000">samples = 9</text>
<text text-anchor="middle" x="1070" y="-364.8" font-family="Helvetica,sans-Serif" font-size="14.00" fill="#000000">value = [11, 1, 0]</text>
<text text-anchor="middle" x="1070" y="-349.8" font-family="Helvetica,sans-Serif" font-size="14.00" fill="#000000">class = 0</text>
</g>
<!-- 16&#45;&gt;18 -->
<g id="edge18" class="edge">
<title>16&#45;&gt;18</title>
<path fill="none" stroke="#000000" d="M919.7926,-460.8796C939.3114,-450.8244 960.288,-440.0183 980.1923,-429.7645"/>
<polygon fill="#000000" stroke="#000000" points="981.9661,-432.788 989.253,-425.0969 978.7604,-426.5651 981.9661,-432.788"/>
</g>
<!-- 19 -->
<g id="node20" class="node">
<title>19</title>
<path fill="#39e581" stroke="#000000" d="M1046,-298.5C1046,-298.5 938,-298.5 938,-298.5 932,-298.5 926,-292.5 926,-286.5 926,-286.5 926,-242.5 926,-242.5 926,-236.5 932,-230.5 938,-230.5 938,-230.5 1046,-230.5 1046,-230.5 1052,-230.5 1058,-236.5 1058,-242.5 1058,-242.5 1058,-286.5 1058,-286.5 1058,-292.5 1052,-298.5 1046,-298.5"/>
<text text-anchor="middle" x="992" y="-283.3" font-family="Helvetica,sans-Serif" font-size="14.00" fill="#000000">gini = 0.0</text>
<text text-anchor="middle" x="992" y="-268.3" font-family="Helvetica,sans-Serif" font-size="14.00" fill="#000000">samples = 1</text>
<text text-anchor="middle" x="992" y="-253.3" font-family="Helvetica,sans-Serif" font-size="14.00" fill="#000000">value = [0, 1, 0]</text>
<text text-anchor="middle" x="992" y="-238.3" font-family="Helvetica,sans-Serif" font-size="14.00" fill="#000000">class = 1</text>
</g>
<!-- 18&#45;&gt;19 -->
<g id="edge19" class="edge">
<title>18&#45;&gt;19</title>
<path fill="none" stroke="#000000" d="M1042.7194,-341.8796C1035.3677,-330.6636 1027.4036,-318.5131 1020.0126,-307.2372"/>
<polygon fill="#000000" stroke="#000000" points="1022.9014,-305.2598 1014.4921,-298.8149 1017.0469,-309.0972 1022.9014,-305.2598"/>
</g>
<!-- 20 -->
<g id="node21" class="node">
<title>20</title>
<path fill="#e58139" stroke="#000000" d="M1205.5,-298.5C1205.5,-298.5 1088.5,-298.5 1088.5,-298.5 1082.5,-298.5 1076.5,-292.5 1076.5,-286.5 1076.5,-286.5 1076.5,-242.5 1076.5,-242.5 1076.5,-236.5 1082.5,-230.5 1088.5,-230.5 1088.5,-230.5 1205.5,-230.5 1205.5,-230.5 1211.5,-230.5 1217.5,-236.5 1217.5,-242.5 1217.5,-242.5 1217.5,-286.5 1217.5,-286.5 1217.5,-292.5 1211.5,-298.5 1205.5,-298.5"/>
<text text-anchor="middle" x="1147" y="-283.3" font-family="Helvetica,sans-Serif" font-size="14.00" fill="#000000">gini = 0.0</text>
<text text-anchor="middle" x="1147" y="-268.3" font-family="Helvetica,sans-Serif" font-size="14.00" fill="#000000">samples = 8</text>
<text text-anchor="middle" x="1147" y="-253.3" font-family="Helvetica,sans-Serif" font-size="14.00" fill="#000000">value = [11, 0, 0]</text>
<text text-anchor="middle" x="1147" y="-238.3" font-family="Helvetica,sans-Serif" font-size="14.00" fill="#000000">class = 0</text>
</g>
<!-- 18&#45;&gt;20 -->
<g id="edge20" class="edge">
<title>18&#45;&gt;20</title>
<path fill="none" stroke="#000000" d="M1096.9309,-341.8796C1104.1883,-330.6636 1112.0503,-318.5131 1119.3465,-307.2372"/>
<polygon fill="#000000" stroke="#000000" points="1122.3022,-309.112 1124.7962,-298.8149 1116.4252,-305.3093 1122.3022,-309.112"/>
</g>
<!-- 24 -->
<g id="node25" class="node">
<title>24</title>
<path fill="#39e581" fill-opacity="0.666667" stroke="#000000" d="M1242,-901C1242,-901 1006,-901 1006,-901 1000,-901 994,-895 994,-889 994,-889 994,-830 994,-830 994,-824 1000,-818 1006,-818 1006,-818 1242,-818 1242,-818 1248,-818 1254,-824 1254,-830 1254,-830 1254,-889 1254,-889 1254,-895 1248,-901 1242,-901"/>
<text text-anchor="middle" x="1124" y="-885.8" font-family="Helvetica,sans-Serif" font-size="14.00" fill="#000000">MCM.2.mean.std.panCK &lt;= 0.107</text>
<text text-anchor="middle" x="1124" y="-870.8" font-family="Helvetica,sans-Serif" font-size="14.00" fill="#000000">gini = 0.375</text>
<text text-anchor="middle" x="1124" y="-855.8" font-family="Helvetica,sans-Serif" font-size="14.00" fill="#000000">samples = 2</text>
<text text-anchor="middle" x="1124" y="-840.8" font-family="Helvetica,sans-Serif" font-size="14.00" fill="#000000">value = [0, 3, 1]</text>
<text text-anchor="middle" x="1124" y="-825.8" font-family="Helvetica,sans-Serif" font-size="14.00" fill="#000000">class = 1</text>
</g>
<!-- 23&#45;&gt;24 -->
<g id="edge24" class="edge">
<title>23&#45;&gt;24</title>
<path fill="none" stroke="#000000" d="M1134.404,-936.8796C1133.2899,-928.5938 1132.1073,-919.798 1130.9542,-911.2216"/>
<polygon fill="#000000" stroke="#000000" points="1134.4213,-910.7425 1129.6199,-901.2981 1127.4838,-911.6753 1134.4213,-910.7425"/>
</g>
<!-- 27 -->
<g id="node28" class="node">
<title>27</title>
<path fill="#8139e5" stroke="#000000" d="M1392,-893.5C1392,-893.5 1284,-893.5 1284,-893.5 1278,-893.5 1272,-887.5 1272,-881.5 1272,-881.5 1272,-837.5 1272,-837.5 1272,-831.5 1278,-825.5 1284,-825.5 1284,-825.5 1392,-825.5 1392,-825.5 1398,-825.5 1404,-831.5 1404,-837.5 1404,-837.5 1404,-881.5 1404,-881.5 1404,-887.5 1398,-893.5 1392,-893.5"/>
<text text-anchor="middle" x="1338" y="-878.3" font-family="Helvetica,sans-Serif" font-size="14.00" fill="#000000">gini = 0.0</text>
<text text-anchor="middle" x="1338" y="-863.3" font-family="Helvetica,sans-Serif" font-size="14.00" fill="#000000">samples = 3</text>
<text text-anchor="middle" x="1338" y="-848.3" font-family="Helvetica,sans-Serif" font-size="14.00" fill="#000000">value = [0, 0, 4]</text>
<text text-anchor="middle" x="1338" y="-833.3" font-family="Helvetica,sans-Serif" font-size="14.00" fill="#000000">class = 2</text>
</g>
<!-- 23&#45;&gt;27 -->
<g id="edge27" class="edge">
<title>23&#45;&gt;27</title>
<path fill="none" stroke="#000000" d="M1209.2508,-936.8796C1229.748,-924.5606 1252.1208,-911.1143 1272.3811,-898.9376"/>
<polygon fill="#000000" stroke="#000000" points="1274.4557,-901.7743 1281.2239,-893.623 1270.8498,-895.7745 1274.4557,-901.7743"/>
</g>
<!-- 25 -->
<g id="node26" class="node">
<title>25</title>
<path fill="#8139e5" stroke="#000000" d="M1084,-774.5C1084,-774.5 976,-774.5 976,-774.5 970,-774.5 964,-768.5 964,-762.5 964,-762.5 964,-718.5 964,-718.5 964,-712.5 970,-706.5 976,-706.5 976,-706.5 1084,-706.5 1084,-706.5 1090,-706.5 1096,-712.5 1096,-718.5 1096,-718.5 1096,-762.5 1096,-762.5 1096,-768.5 1090,-774.5 1084,-774.5"/>
<text text-anchor="middle" x="1030" y="-759.3" font-family="Helvetica,sans-Serif" font-size="14.00" fill="#000000">gini = 0.0</text>
<text text-anchor="middle" x="1030" y="-744.3" font-family="Helvetica,sans-Serif" font-size="14.00" fill="#000000">samples = 1</text>
<text text-anchor="middle" x="1030" y="-729.3" font-family="Helvetica,sans-Serif" font-size="14.00" fill="#000000">value = [0, 0, 1]</text>
<text text-anchor="middle" x="1030" y="-714.3" font-family="Helvetica,sans-Serif" font-size="14.00" fill="#000000">class = 2</text>
</g>
<!-- 24&#45;&gt;25 -->
<g id="edge25" class="edge">
<title>24&#45;&gt;25</title>
<path fill="none" stroke="#000000" d="M1091.1234,-817.8796C1082.1768,-806.5536 1072.4776,-794.2748 1063.4971,-782.9058"/>
<polygon fill="#000000" stroke="#000000" points="1066.051,-780.4926 1057.1059,-774.8149 1060.558,-784.8316 1066.051,-780.4926"/>
</g>
<!-- 26 -->
<g id="node27" class="node">
<title>26</title>
<path fill="#39e581" stroke="#000000" d="M1234,-774.5C1234,-774.5 1126,-774.5 1126,-774.5 1120,-774.5 1114,-768.5 1114,-762.5 1114,-762.5 1114,-718.5 1114,-718.5 1114,-712.5 1120,-706.5 1126,-706.5 1126,-706.5 1234,-706.5 1234,-706.5 1240,-706.5 1246,-712.5 1246,-718.5 1246,-718.5 1246,-762.5 1246,-762.5 1246,-768.5 1240,-774.5 1234,-774.5"/>
<text text-anchor="middle" x="1180" y="-759.3" font-family="Helvetica,sans-Serif" font-size="14.00" fill="#000000">gini = 0.0</text>
<text text-anchor="middle" x="1180" y="-744.3" font-family="Helvetica,sans-Serif" font-size="14.00" fill="#000000">samples = 1</text>
<text text-anchor="middle" x="1180" y="-729.3" font-family="Helvetica,sans-Serif" font-size="14.00" fill="#000000">value = [0, 3, 0]</text>
<text text-anchor="middle" x="1180" y="-714.3" font-family="Helvetica,sans-Serif" font-size="14.00" fill="#000000">class = 1</text>
</g>
<!-- 24&#45;&gt;26 -->
<g id="edge26" class="edge">
<title>24&#45;&gt;26</title>
<path fill="none" stroke="#000000" d="M1143.5861,-817.8796C1148.7607,-806.8835 1154.358,-794.9893 1159.5758,-783.9015"/>
<polygon fill="#000000" stroke="#000000" points="1162.7606,-785.3534 1163.8518,-774.8149 1156.4269,-782.3728 1162.7606,-785.3534"/>
</g>
<!-- 29 -->
<g id="node30" class="node">
<title>29</title>
<path fill="#39e581" stroke="#000000" d="M1417.5,-1012.5C1417.5,-1012.5 1300.5,-1012.5 1300.5,-1012.5 1294.5,-1012.5 1288.5,-1006.5 1288.5,-1000.5 1288.5,-1000.5 1288.5,-956.5 1288.5,-956.5 1288.5,-950.5 1294.5,-944.5 1300.5,-944.5 1300.5,-944.5 1417.5,-944.5 1417.5,-944.5 1423.5,-944.5 1429.5,-950.5 1429.5,-956.5 1429.5,-956.5 1429.5,-1000.5 1429.5,-1000.5 1429.5,-1006.5 1423.5,-1012.5 1417.5,-1012.5"/>
<text text-anchor="middle" x="1359" y="-997.3" font-family="Helvetica,sans-Serif" font-size="14.00" fill="#000000">gini = 0.0</text>
<text text-anchor="middle" x="1359" y="-982.3" font-family="Helvetica,sans-Serif" font-size="14.00" fill="#000000">samples = 33</text>
<text text-anchor="middle" x="1359" y="-967.3" font-family="Helvetica,sans-Serif" font-size="14.00" fill="#000000">value = [0, 55, 0]</text>
<text text-anchor="middle" x="1359" y="-952.3" font-family="Helvetica,sans-Serif" font-size="14.00" fill="#000000">class = 1</text>
</g>
<!-- 28&#45;&gt;29 -->
<g id="edge29" class="edge">
<title>28&#45;&gt;29</title>
<path fill="none" stroke="#000000" d="M1359,-1055.8796C1359,-1045.2134 1359,-1033.7021 1359,-1022.9015"/>
<polygon fill="#000000" stroke="#000000" points="1362.5001,-1022.8149 1359,-1012.8149 1355.5001,-1022.815 1362.5001,-1022.8149"/>
</g>
<!-- 30 -->
<g id="node31" class="node">
<title>30</title>
<path fill="#8139e5" stroke="#000000" d="M1576.5,-1012.5C1576.5,-1012.5 1459.5,-1012.5 1459.5,-1012.5 1453.5,-1012.5 1447.5,-1006.5 1447.5,-1000.5 1447.5,-1000.5 1447.5,-956.5 1447.5,-956.5 1447.5,-950.5 1453.5,-944.5 1459.5,-944.5 1459.5,-944.5 1576.5,-944.5 1576.5,-944.5 1582.5,-944.5 1588.5,-950.5 1588.5,-956.5 1588.5,-956.5 1588.5,-1000.5 1588.5,-1000.5 1588.5,-1006.5 1582.5,-1012.5 1576.5,-1012.5"/>
<text text-anchor="middle" x="1518" y="-997.3" font-family="Helvetica,sans-Serif" font-size="14.00" fill="#000000">gini = 0.0</text>
<text text-anchor="middle" x="1518" y="-982.3" font-family="Helvetica,sans-Serif" font-size="14.00" fill="#000000">samples = 10</text>
<text text-anchor="middle" x="1518" y="-967.3" font-family="Helvetica,sans-Serif" font-size="14.00" fill="#000000">value = [0, 0, 15]</text>
<text text-anchor="middle" x="1518" y="-952.3" font-family="Helvetica,sans-Serif" font-size="14.00" fill="#000000">class = 2</text>
</g>
<!-- 28&#45;&gt;30 -->
<g id="edge30" class="edge">
<title>28&#45;&gt;30</title>
<path fill="none" stroke="#000000" d="M1414.6105,-1055.8796C1430.7013,-1043.8368 1448.2315,-1030.7167 1464.2091,-1018.7586"/>
<polygon fill="#000000" stroke="#000000" points="1466.4982,-1021.4171 1472.407,-1012.623 1462.3038,-1015.8129 1466.4982,-1021.4171"/>
</g>
</g>
</svg>
