<?xml version="1.0" encoding="UTF-8" standalone="no"?>
<!DOCTYPE svg PUBLIC "-//W3C//DTD SVG 1.1//EN"
 "http://www.w3.org/Graphics/SVG/1.1/DTD/svg11.dtd">
<!-- Generated by graphviz version 2.40.1 (20161225.0304)
 -->
<!-- Title: Tree Pages: 1 -->
<svg width="1777pt" height="909pt"
 viewBox="0.00 0.00 1776.50 909.00" xmlns="http://www.w3.org/2000/svg" xmlns:xlink="http://www.w3.org/1999/xlink">
<g id="graph0" class="graph" transform="scale(1 1) rotate(0) translate(4 905)">
<title>Tree</title>
<polygon fill="#ffffff" stroke="transparent" points="-4,4 -4,-905 1772.5,-905 1772.5,4 -4,4"/>
<!-- 0 -->
<g id="node1" class="node">
<title>0</title>
<path fill="#e58139" fill-opacity="0.309804" stroke="#000000" d="M1365.5,-901C1365.5,-901 1221.5,-901 1221.5,-901 1215.5,-901 1209.5,-895 1209.5,-889 1209.5,-889 1209.5,-830 1209.5,-830 1209.5,-824 1215.5,-818 1221.5,-818 1221.5,-818 1365.5,-818 1365.5,-818 1371.5,-818 1377.5,-824 1377.5,-830 1377.5,-830 1377.5,-889 1377.5,-889 1377.5,-895 1371.5,-901 1365.5,-901"/>
<text text-anchor="middle" x="1293.5" y="-885.8" font-family="Helvetica,sans-Serif" font-size="14.00" fill="#000000">Previos.BC &lt;= 0.686</text>
<text text-anchor="middle" x="1293.5" y="-870.8" font-family="Helvetica,sans-Serif" font-size="14.00" fill="#000000">gini = 0.622</text>
<text text-anchor="middle" x="1293.5" y="-855.8" font-family="Helvetica,sans-Serif" font-size="14.00" fill="#000000">samples = 142</text>
<text text-anchor="middle" x="1293.5" y="-840.8" font-family="Helvetica,sans-Serif" font-size="14.00" fill="#000000">value = [111, 62, 48]</text>
<text text-anchor="middle" x="1293.5" y="-825.8" font-family="Helvetica,sans-Serif" font-size="14.00" fill="#000000">class = 0</text>
</g>
<!-- 1 -->
<g id="node2" class="node">
<title>1</title>
<path fill="#e58139" fill-opacity="0.431373" stroke="#000000" d="M1227.5,-782C1227.5,-782 1037.5,-782 1037.5,-782 1031.5,-782 1025.5,-776 1025.5,-770 1025.5,-770 1025.5,-711 1025.5,-711 1025.5,-705 1031.5,-699 1037.5,-699 1037.5,-699 1227.5,-699 1227.5,-699 1233.5,-699 1239.5,-705 1239.5,-711 1239.5,-711 1239.5,-770 1239.5,-770 1239.5,-776 1233.5,-782 1227.5,-782"/>
<text text-anchor="middle" x="1132.5" y="-766.8" font-family="Helvetica,sans-Serif" font-size="14.00" fill="#000000">No..of.panCK..ve &lt;= &#45;0.173</text>
<text text-anchor="middle" x="1132.5" y="-751.8" font-family="Helvetica,sans-Serif" font-size="14.00" fill="#000000">gini = 0.467</text>
<text text-anchor="middle" x="1132.5" y="-736.8" font-family="Helvetica,sans-Serif" font-size="14.00" fill="#000000">samples = 112</text>
<text text-anchor="middle" x="1132.5" y="-721.8" font-family="Helvetica,sans-Serif" font-size="14.00" fill="#000000">value = [110, 62, 1]</text>
<text text-anchor="middle" x="1132.5" y="-706.8" font-family="Helvetica,sans-Serif" font-size="14.00" fill="#000000">class = 0</text>
</g>
<!-- 0&#45;&gt;1 -->
<g id="edge1" class="edge">
<title>0&#45;&gt;1</title>
<path fill="none" stroke="#000000" d="M1237.19,-817.8796C1224.1988,-808.2774 1210.281,-797.9903 1196.9723,-788.1534"/>
<polygon fill="#000000" stroke="#000000" points="1198.9004,-785.2263 1188.7782,-782.0969 1194.7396,-790.8555 1198.9004,-785.2263"/>
<text text-anchor="middle" x="1192.4867" y="-803.1203" font-family="Helvetica,sans-Serif" font-size="14.00" fill="#000000">True</text>
</g>
<!-- 22 -->
<g id="node23" class="node">
<title>22</title>
<path fill="#8139e5" fill-opacity="0.980392" stroke="#000000" d="M1543,-782C1543,-782 1302,-782 1302,-782 1296,-782 1290,-776 1290,-770 1290,-770 1290,-711 1290,-711 1290,-705 1296,-699 1302,-699 1302,-699 1543,-699 1543,-699 1549,-699 1555,-705 1555,-711 1555,-711 1555,-770 1555,-770 1555,-776 1549,-782 1543,-782"/>
<text text-anchor="middle" x="1422.5" y="-766.8" font-family="Helvetica,sans-Serif" font-size="14.00" fill="#000000">MCM.2.mean.std.panCK &lt;= &#45;0.157</text>
<text text-anchor="middle" x="1422.5" y="-751.8" font-family="Helvetica,sans-Serif" font-size="14.00" fill="#000000">gini = 0.041</text>
<text text-anchor="middle" x="1422.5" y="-736.8" font-family="Helvetica,sans-Serif" font-size="14.00" fill="#000000">samples = 30</text>
<text text-anchor="middle" x="1422.5" y="-721.8" font-family="Helvetica,sans-Serif" font-size="14.00" fill="#000000">value = [1, 0, 47]</text>
<text text-anchor="middle" x="1422.5" y="-706.8" font-family="Helvetica,sans-Serif" font-size="14.00" fill="#000000">class = 2</text>
</g>
<!-- 0&#45;&gt;22 -->
<g id="edge22" class="edge">
<title>0&#45;&gt;22</title>
<path fill="none" stroke="#000000" d="M1338.6179,-817.8796C1348.674,-808.6031 1359.423,-798.6874 1369.7554,-789.1559"/>
<polygon fill="#000000" stroke="#000000" points="1372.2124,-791.6511 1377.1895,-782.2981 1367.4661,-786.506 1372.2124,-791.6511"/>
<text text-anchor="middle" x="1376.1822" y="-803.5778" font-family="Helvetica,sans-Serif" font-size="14.00" fill="#000000">False</text>
</g>
<!-- 2 -->
<g id="node3" class="node">
<title>2</title>
<path fill="#e58139" fill-opacity="0.647059" stroke="#000000" d="M976,-663C976,-663 735,-663 735,-663 729,-663 723,-657 723,-651 723,-651 723,-592 723,-592 723,-586 729,-580 735,-580 735,-580 976,-580 976,-580 982,-580 988,-586 988,-592 988,-592 988,-651 988,-651 988,-657 982,-663 976,-663"/>
<text text-anchor="middle" x="855.5" y="-647.8" font-family="Helvetica,sans-Serif" font-size="14.00" fill="#000000">MCM.2.mean.std.panCK &lt;= &#45;1.699</text>
<text text-anchor="middle" x="855.5" y="-632.8" font-family="Helvetica,sans-Serif" font-size="14.00" fill="#000000">gini = 0.393</text>
<text text-anchor="middle" x="855.5" y="-617.8" font-family="Helvetica,sans-Serif" font-size="14.00" fill="#000000">samples = 65</text>
<text text-anchor="middle" x="855.5" y="-602.8" font-family="Helvetica,sans-Serif" font-size="14.00" fill="#000000">value = [70, 24, 1]</text>
<text text-anchor="middle" x="855.5" y="-587.8" font-family="Helvetica,sans-Serif" font-size="14.00" fill="#000000">class = 0</text>
</g>
<!-- 1&#45;&gt;2 -->
<g id="edge2" class="edge">
<title>1&#45;&gt;2</title>
<path fill="none" stroke="#000000" d="M1035.6188,-698.8796C1011.686,-688.598 985.9254,-677.5311 961.5807,-667.0726"/>
<polygon fill="#000000" stroke="#000000" points="962.896,-663.8284 952.3265,-663.0969 960.1329,-670.26 962.896,-663.8284"/>
</g>
<!-- 15 -->
<g id="node16" class="node">
<title>15</title>
<path fill="#e58139" fill-opacity="0.050980" stroke="#000000" d="M1215,-663C1215,-663 1050,-663 1050,-663 1044,-663 1038,-657 1038,-651 1038,-651 1038,-592 1038,-592 1038,-586 1044,-580 1050,-580 1050,-580 1215,-580 1215,-580 1221,-580 1227,-586 1227,-592 1227,-592 1227,-651 1227,-651 1227,-657 1221,-663 1215,-663"/>
<text text-anchor="middle" x="1132.5" y="-647.8" font-family="Helvetica,sans-Serif" font-size="14.00" fill="#000000">Blood.in.urine &lt;= 0.053</text>
<text text-anchor="middle" x="1132.5" y="-632.8" font-family="Helvetica,sans-Serif" font-size="14.00" fill="#000000">gini = 0.5</text>
<text text-anchor="middle" x="1132.5" y="-617.8" font-family="Helvetica,sans-Serif" font-size="14.00" fill="#000000">samples = 47</text>
<text text-anchor="middle" x="1132.5" y="-602.8" font-family="Helvetica,sans-Serif" font-size="14.00" fill="#000000">value = [40, 38, 0]</text>
<text text-anchor="middle" x="1132.5" y="-587.8" font-family="Helvetica,sans-Serif" font-size="14.00" fill="#000000">class = 0</text>
</g>
<!-- 1&#45;&gt;15 -->
<g id="edge15" class="edge">
<title>1&#45;&gt;15</title>
<path fill="none" stroke="#000000" d="M1132.5,-698.8796C1132.5,-690.6838 1132.5,-681.9891 1132.5,-673.5013"/>
<polygon fill="#000000" stroke="#000000" points="1136.0001,-673.298 1132.5,-663.2981 1129.0001,-673.2981 1136.0001,-673.298"/>
</g>
<!-- 3 -->
<g id="node4" class="node">
<title>3</title>
<path fill="#39e581" stroke="#000000" d="M730.5,-536.5C730.5,-536.5 622.5,-536.5 622.5,-536.5 616.5,-536.5 610.5,-530.5 610.5,-524.5 610.5,-524.5 610.5,-480.5 610.5,-480.5 610.5,-474.5 616.5,-468.5 622.5,-468.5 622.5,-468.5 730.5,-468.5 730.5,-468.5 736.5,-468.5 742.5,-474.5 742.5,-480.5 742.5,-480.5 742.5,-524.5 742.5,-524.5 742.5,-530.5 736.5,-536.5 730.5,-536.5"/>
<text text-anchor="middle" x="676.5" y="-521.3" font-family="Helvetica,sans-Serif" font-size="14.00" fill="#000000">gini = 0.0</text>
<text text-anchor="middle" x="676.5" y="-506.3" font-family="Helvetica,sans-Serif" font-size="14.00" fill="#000000">samples = 1</text>
<text text-anchor="middle" x="676.5" y="-491.3" font-family="Helvetica,sans-Serif" font-size="14.00" fill="#000000">value = [0, 3, 0]</text>
<text text-anchor="middle" x="676.5" y="-476.3" font-family="Helvetica,sans-Serif" font-size="14.00" fill="#000000">class = 1</text>
</g>
<!-- 2&#45;&gt;3 -->
<g id="edge3" class="edge">
<title>2&#45;&gt;3</title>
<path fill="none" stroke="#000000" d="M792.8945,-579.8796C774.6135,-567.7263 754.6822,-554.4759 736.5624,-542.4297"/>
<polygon fill="#000000" stroke="#000000" points="738.0933,-539.2447 727.8279,-536.623 734.2179,-545.074 738.0933,-539.2447"/>
</g>
<!-- 4 -->
<g id="node5" class="node">
<title>4</title>
<path fill="#e58139" fill-opacity="0.690196" stroke="#000000" d="M938,-544C938,-544 773,-544 773,-544 767,-544 761,-538 761,-532 761,-532 761,-473 761,-473 761,-467 767,-461 773,-461 773,-461 938,-461 938,-461 944,-461 950,-467 950,-473 950,-473 950,-532 950,-532 950,-538 944,-544 938,-544"/>
<text text-anchor="middle" x="855.5" y="-528.8" font-family="Helvetica,sans-Serif" font-size="14.00" fill="#000000">Blood.in.urine &lt;= 0.053</text>
<text text-anchor="middle" x="855.5" y="-513.8" font-family="Helvetica,sans-Serif" font-size="14.00" fill="#000000">gini = 0.369</text>
<text text-anchor="middle" x="855.5" y="-498.8" font-family="Helvetica,sans-Serif" font-size="14.00" fill="#000000">samples = 64</text>
<text text-anchor="middle" x="855.5" y="-483.8" font-family="Helvetica,sans-Serif" font-size="14.00" fill="#000000">value = [70, 21, 1]</text>
<text text-anchor="middle" x="855.5" y="-468.8" font-family="Helvetica,sans-Serif" font-size="14.00" fill="#000000">class = 0</text>
</g>
<!-- 2&#45;&gt;4 -->
<g id="edge4" class="edge">
<title>2&#45;&gt;4</title>
<path fill="none" stroke="#000000" d="M855.5,-579.8796C855.5,-571.6838 855.5,-562.9891 855.5,-554.5013"/>
<polygon fill="#000000" stroke="#000000" points="859.0001,-554.298 855.5,-544.2981 852.0001,-554.2981 859.0001,-554.298"/>
</g>
<!-- 5 -->
<g id="node6" class="node">
<title>5</title>
<path fill="#e58139" fill-opacity="0.956863" stroke="#000000" d="M761.5,-425C761.5,-425 435.5,-425 435.5,-425 429.5,-425 423.5,-419 423.5,-413 423.5,-413 423.5,-354 423.5,-354 423.5,-348 429.5,-342 435.5,-342 435.5,-342 761.5,-342 761.5,-342 767.5,-342 773.5,-348 773.5,-354 773.5,-354 773.5,-413 773.5,-413 773.5,-419 767.5,-425 761.5,-425"/>
<text text-anchor="middle" x="598.5" y="-409.8" font-family="Helvetica,sans-Serif" font-size="14.00" fill="#000000">No..of.Nucleus.without.coexpression &lt;= 1.387</text>
<text text-anchor="middle" x="598.5" y="-394.8" font-family="Helvetica,sans-Serif" font-size="14.00" fill="#000000">gini = 0.08</text>
<text text-anchor="middle" x="598.5" y="-379.8" font-family="Helvetica,sans-Serif" font-size="14.00" fill="#000000">samples = 48</text>
<text text-anchor="middle" x="598.5" y="-364.8" font-family="Helvetica,sans-Serif" font-size="14.00" fill="#000000">value = [70, 2, 1]</text>
<text text-anchor="middle" x="598.5" y="-349.8" font-family="Helvetica,sans-Serif" font-size="14.00" fill="#000000">class = 0</text>
</g>
<!-- 4&#45;&gt;5 -->
<g id="edge5" class="edge">
<title>4&#45;&gt;5</title>
<path fill="none" stroke="#000000" d="M765.6139,-460.8796C743.6047,-450.6886 719.9295,-439.7261 697.5188,-429.3492"/>
<polygon fill="#000000" stroke="#000000" points="698.8804,-426.1227 688.3354,-425.0969 695.9392,-432.4748 698.8804,-426.1227"/>
</g>
<!-- 14 -->
<g id="node15" class="node">
<title>14</title>
<path fill="#39e581" stroke="#000000" d="M921,-417.5C921,-417.5 804,-417.5 804,-417.5 798,-417.5 792,-411.5 792,-405.5 792,-405.5 792,-361.5 792,-361.5 792,-355.5 798,-349.5 804,-349.5 804,-349.5 921,-349.5 921,-349.5 927,-349.5 933,-355.5 933,-361.5 933,-361.5 933,-405.5 933,-405.5 933,-411.5 927,-417.5 921,-417.5"/>
<text text-anchor="middle" x="862.5" y="-402.3" font-family="Helvetica,sans-Serif" font-size="14.00" fill="#000000">gini = 0.0</text>
<text text-anchor="middle" x="862.5" y="-387.3" font-family="Helvetica,sans-Serif" font-size="14.00" fill="#000000">samples = 16</text>
<text text-anchor="middle" x="862.5" y="-372.3" font-family="Helvetica,sans-Serif" font-size="14.00" fill="#000000">value = [0, 19, 0]</text>
<text text-anchor="middle" x="862.5" y="-357.3" font-family="Helvetica,sans-Serif" font-size="14.00" fill="#000000">class = 1</text>
</g>
<!-- 4&#45;&gt;14 -->
<g id="edge14" class="edge">
<title>4&#45;&gt;14</title>
<path fill="none" stroke="#000000" d="M857.9483,-460.8796C858.5757,-450.2134 859.2528,-438.7021 859.8881,-427.9015"/>
<polygon fill="#000000" stroke="#000000" points="863.3881,-428.0032 860.4815,-417.8149 856.4002,-427.5921 863.3881,-428.0032"/>
</g>
<!-- 6 -->
<g id="node7" class="node">
<title>6</title>
<path fill="#e58139" fill-opacity="0.984314" stroke="#000000" d="M446,-306C446,-306 205,-306 205,-306 199,-306 193,-300 193,-294 193,-294 193,-235 193,-235 193,-229 199,-223 205,-223 205,-223 446,-223 446,-223 452,-223 458,-229 458,-235 458,-235 458,-294 458,-294 458,-300 452,-306 446,-306"/>
<text text-anchor="middle" x="325.5" y="-290.8" font-family="Helvetica,sans-Serif" font-size="14.00" fill="#000000">MCM.2.mean.std.panCK &lt;= &#45;0.565</text>
<text text-anchor="middle" x="325.5" y="-275.8" font-family="Helvetica,sans-Serif" font-size="14.00" fill="#000000">gini = 0.034</text>
<text text-anchor="middle" x="325.5" y="-260.8" font-family="Helvetica,sans-Serif" font-size="14.00" fill="#000000">samples = 40</text>
<text text-anchor="middle" x="325.5" y="-245.8" font-family="Helvetica,sans-Serif" font-size="14.00" fill="#000000">value = [57, 0, 1]</text>
<text text-anchor="middle" x="325.5" y="-230.8" font-family="Helvetica,sans-Serif" font-size="14.00" fill="#000000">class = 0</text>
</g>
<!-- 5&#45;&gt;6 -->
<g id="edge6" class="edge">
<title>5&#45;&gt;6</title>
<path fill="none" stroke="#000000" d="M503.0178,-341.8796C479.5346,-331.6433 454.2657,-320.6286 430.366,-310.2108"/>
<polygon fill="#000000" stroke="#000000" points="431.4938,-306.8844 420.9282,-306.0969 428.6966,-313.3013 431.4938,-306.8844"/>
</g>
<!-- 11 -->
<g id="node12" class="node">
<title>11</title>
<path fill="#e58139" fill-opacity="0.847059" stroke="#000000" d="M814.5,-306C814.5,-306 488.5,-306 488.5,-306 482.5,-306 476.5,-300 476.5,-294 476.5,-294 476.5,-235 476.5,-235 476.5,-229 482.5,-223 488.5,-223 488.5,-223 814.5,-223 814.5,-223 820.5,-223 826.5,-229 826.5,-235 826.5,-235 826.5,-294 826.5,-294 826.5,-300 820.5,-306 814.5,-306"/>
<text text-anchor="middle" x="651.5" y="-290.8" font-family="Helvetica,sans-Serif" font-size="14.00" fill="#000000">No..of.Nucleus.without.coexpression &lt;= 1.735</text>
<text text-anchor="middle" x="651.5" y="-275.8" font-family="Helvetica,sans-Serif" font-size="14.00" fill="#000000">gini = 0.231</text>
<text text-anchor="middle" x="651.5" y="-260.8" font-family="Helvetica,sans-Serif" font-size="14.00" fill="#000000">samples = 8</text>
<text text-anchor="middle" x="651.5" y="-245.8" font-family="Helvetica,sans-Serif" font-size="14.00" fill="#000000">value = [13, 2, 0]</text>
<text text-anchor="middle" x="651.5" y="-230.8" font-family="Helvetica,sans-Serif" font-size="14.00" fill="#000000">class = 0</text>
</g>
<!-- 5&#45;&gt;11 -->
<g id="edge11" class="edge">
<title>5&#45;&gt;11</title>
<path fill="none" stroke="#000000" d="M617.0368,-341.8796C620.8074,-333.4136 624.815,-324.4153 628.7133,-315.6626"/>
<polygon fill="#000000" stroke="#000000" points="632.0127,-316.857 632.8841,-306.2981 625.6183,-314.009 632.0127,-316.857"/>
</g>
<!-- 7 -->
<g id="node8" class="node">
<title>7</title>
<path fill="#e58139" fill-opacity="0.941176" stroke="#000000" d="M268,-187C268,-187 27,-187 27,-187 21,-187 15,-181 15,-175 15,-175 15,-116 15,-116 15,-110 21,-104 27,-104 27,-104 268,-104 268,-104 274,-104 280,-110 280,-116 280,-116 280,-175 280,-175 280,-181 274,-187 268,-187"/>
<text text-anchor="middle" x="147.5" y="-171.8" font-family="Helvetica,sans-Serif" font-size="14.00" fill="#000000">MCM.2.mean.std.panCK &lt;= &#45;0.719</text>
<text text-anchor="middle" x="147.5" y="-156.8" font-family="Helvetica,sans-Serif" font-size="14.00" fill="#000000">gini = 0.105</text>
<text text-anchor="middle" x="147.5" y="-141.8" font-family="Helvetica,sans-Serif" font-size="14.00" fill="#000000">samples = 13</text>
<text text-anchor="middle" x="147.5" y="-126.8" font-family="Helvetica,sans-Serif" font-size="14.00" fill="#000000">value = [17, 0, 1]</text>
<text text-anchor="middle" x="147.5" y="-111.8" font-family="Helvetica,sans-Serif" font-size="14.00" fill="#000000">class = 0</text>
</g>
<!-- 6&#45;&gt;7 -->
<g id="edge7" class="edge">
<title>6&#45;&gt;7</title>
<path fill="none" stroke="#000000" d="M263.2442,-222.8796C248.7458,-213.1868 233.2035,-202.7961 218.3637,-192.8752"/>
<polygon fill="#000000" stroke="#000000" points="219.9792,-189.7451 209.7206,-187.0969 216.0887,-195.5644 219.9792,-189.7451"/>
</g>
<!-- 10 -->
<g id="node11" class="node">
<title>10</title>
<path fill="#e58139" stroke="#000000" d="M427,-179.5C427,-179.5 310,-179.5 310,-179.5 304,-179.5 298,-173.5 298,-167.5 298,-167.5 298,-123.5 298,-123.5 298,-117.5 304,-111.5 310,-111.5 310,-111.5 427,-111.5 427,-111.5 433,-111.5 439,-117.5 439,-123.5 439,-123.5 439,-167.5 439,-167.5 439,-173.5 433,-179.5 427,-179.5"/>
<text text-anchor="middle" x="368.5" y="-164.3" font-family="Helvetica,sans-Serif" font-size="14.00" fill="#000000">gini = 0.0</text>
<text text-anchor="middle" x="368.5" y="-149.3" font-family="Helvetica,sans-Serif" font-size="14.00" fill="#000000">samples = 27</text>
<text text-anchor="middle" x="368.5" y="-134.3" font-family="Helvetica,sans-Serif" font-size="14.00" fill="#000000">value = [40, 0, 0]</text>
<text text-anchor="middle" x="368.5" y="-119.3" font-family="Helvetica,sans-Serif" font-size="14.00" fill="#000000">class = 0</text>
</g>
<!-- 6&#45;&gt;10 -->
<g id="edge10" class="edge">
<title>6&#45;&gt;10</title>
<path fill="none" stroke="#000000" d="M340.5393,-222.8796C344.473,-211.9935 348.7247,-200.227 352.6968,-189.2344"/>
<polygon fill="#000000" stroke="#000000" points="355.9937,-190.4092 356.1005,-179.8149 349.4103,-188.0303 355.9937,-190.4092"/>
</g>
<!-- 8 -->
<g id="node9" class="node">
<title>8</title>
<path fill="#e58139" stroke="#000000" d="M129,-68C129,-68 12,-68 12,-68 6,-68 0,-62 0,-56 0,-56 0,-12 0,-12 0,-6 6,0 12,0 12,0 129,0 129,0 135,0 141,-6 141,-12 141,-12 141,-56 141,-56 141,-62 135,-68 129,-68"/>
<text text-anchor="middle" x="70.5" y="-52.8" font-family="Helvetica,sans-Serif" font-size="14.00" fill="#000000">gini = 0.0</text>
<text text-anchor="middle" x="70.5" y="-37.8" font-family="Helvetica,sans-Serif" font-size="14.00" fill="#000000">samples = 12</text>
<text text-anchor="middle" x="70.5" y="-22.8" font-family="Helvetica,sans-Serif" font-size="14.00" fill="#000000">value = [17, 0, 0]</text>
<text text-anchor="middle" x="70.5" y="-7.8" font-family="Helvetica,sans-Serif" font-size="14.00" fill="#000000">class = 0</text>
</g>
<!-- 7&#45;&gt;8 -->
<g id="edge8" class="edge">
<title>7&#45;&gt;8</title>
<path fill="none" stroke="#000000" d="M118.828,-103.9815C112.6715,-95.0666 106.1557,-85.6313 99.9695,-76.6734"/>
<polygon fill="#000000" stroke="#000000" points="102.7245,-74.5034 94.1619,-68.2637 96.9645,-78.4811 102.7245,-74.5034"/>
</g>
<!-- 9 -->
<g id="node10" class="node">
<title>9</title>
<path fill="#8139e5" stroke="#000000" d="M279.5,-68C279.5,-68 171.5,-68 171.5,-68 165.5,-68 159.5,-62 159.5,-56 159.5,-56 159.5,-12 159.5,-12 159.5,-6 165.5,0 171.5,0 171.5,0 279.5,0 279.5,0 285.5,0 291.5,-6 291.5,-12 291.5,-12 291.5,-56 291.5,-56 291.5,-62 285.5,-68 279.5,-68"/>
<text text-anchor="middle" x="225.5" y="-52.8" font-family="Helvetica,sans-Serif" font-size="14.00" fill="#000000">gini = 0.0</text>
<text text-anchor="middle" x="225.5" y="-37.8" font-family="Helvetica,sans-Serif" font-size="14.00" fill="#000000">samples = 1</text>
<text text-anchor="middle" x="225.5" y="-22.8" font-family="Helvetica,sans-Serif" font-size="14.00" fill="#000000">value = [0, 0, 1]</text>
<text text-anchor="middle" x="225.5" y="-7.8" font-family="Helvetica,sans-Serif" font-size="14.00" fill="#000000">class = 2</text>
</g>
<!-- 7&#45;&gt;9 -->
<g id="edge9" class="edge">
<title>7&#45;&gt;9</title>
<path fill="none" stroke="#000000" d="M176.5443,-103.9815C182.7808,-95.0666 189.3813,-85.6313 195.6478,-76.6734"/>
<polygon fill="#000000" stroke="#000000" points="198.6665,-78.464 201.5308,-68.2637 192.9307,-74.4515 198.6665,-78.464"/>
</g>
<!-- 12 -->
<g id="node13" class="node">
<title>12</title>
<path fill="#39e581" stroke="#000000" d="M662.5,-179.5C662.5,-179.5 554.5,-179.5 554.5,-179.5 548.5,-179.5 542.5,-173.5 542.5,-167.5 542.5,-167.5 542.5,-123.5 542.5,-123.5 542.5,-117.5 548.5,-111.5 554.5,-111.5 554.5,-111.5 662.5,-111.5 662.5,-111.5 668.5,-111.5 674.5,-117.5 674.5,-123.5 674.5,-123.5 674.5,-167.5 674.5,-167.5 674.5,-173.5 668.5,-179.5 662.5,-179.5"/>
<text text-anchor="middle" x="608.5" y="-164.3" font-family="Helvetica,sans-Serif" font-size="14.00" fill="#000000">gini = 0.0</text>
<text text-anchor="middle" x="608.5" y="-149.3" font-family="Helvetica,sans-Serif" font-size="14.00" fill="#000000">samples = 1</text>
<text text-anchor="middle" x="608.5" y="-134.3" font-family="Helvetica,sans-Serif" font-size="14.00" fill="#000000">value = [0, 2, 0]</text>
<text text-anchor="middle" x="608.5" y="-119.3" font-family="Helvetica,sans-Serif" font-size="14.00" fill="#000000">class = 1</text>
</g>
<!-- 11&#45;&gt;12 -->
<g id="edge12" class="edge">
<title>11&#45;&gt;12</title>
<path fill="none" stroke="#000000" d="M636.4607,-222.8796C632.527,-211.9935 628.2753,-200.227 624.3032,-189.2344"/>
<polygon fill="#000000" stroke="#000000" points="627.5897,-188.0303 620.8995,-179.8149 621.0063,-190.4092 627.5897,-188.0303"/>
</g>
<!-- 13 -->
<g id="node14" class="node">
<title>13</title>
<path fill="#e58139" stroke="#000000" d="M822,-179.5C822,-179.5 705,-179.5 705,-179.5 699,-179.5 693,-173.5 693,-167.5 693,-167.5 693,-123.5 693,-123.5 693,-117.5 699,-111.5 705,-111.5 705,-111.5 822,-111.5 822,-111.5 828,-111.5 834,-117.5 834,-123.5 834,-123.5 834,-167.5 834,-167.5 834,-173.5 828,-179.5 822,-179.5"/>
<text text-anchor="middle" x="763.5" y="-164.3" font-family="Helvetica,sans-Serif" font-size="14.00" fill="#000000">gini = 0.0</text>
<text text-anchor="middle" x="763.5" y="-149.3" font-family="Helvetica,sans-Serif" font-size="14.00" fill="#000000">samples = 7</text>
<text text-anchor="middle" x="763.5" y="-134.3" font-family="Helvetica,sans-Serif" font-size="14.00" fill="#000000">value = [13, 0, 0]</text>
<text text-anchor="middle" x="763.5" y="-119.3" font-family="Helvetica,sans-Serif" font-size="14.00" fill="#000000">class = 0</text>
</g>
<!-- 11&#45;&gt;13 -->
<g id="edge13" class="edge">
<title>11&#45;&gt;13</title>
<path fill="none" stroke="#000000" d="M690.6722,-222.8796C701.5389,-211.3337 713.3376,-198.7976 724.2109,-187.2446"/>
<polygon fill="#000000" stroke="#000000" points="726.8986,-189.4958 731.2036,-179.8149 721.8012,-184.6982 726.8986,-189.4958"/>
</g>
<!-- 16 -->
<g id="node17" class="node">
<title>16</title>
<path fill="#e58139" fill-opacity="0.901961" stroke="#000000" d="M1167,-544C1167,-544 980,-544 980,-544 974,-544 968,-538 968,-532 968,-532 968,-473 968,-473 968,-467 974,-461 980,-461 980,-461 1167,-461 1167,-461 1173,-461 1179,-467 1179,-473 1179,-473 1179,-532 1179,-532 1179,-538 1173,-544 1167,-544"/>
<text text-anchor="middle" x="1073.5" y="-528.8" font-family="Helvetica,sans-Serif" font-size="14.00" fill="#000000">No..of.MCM2..ve &lt;= &#45;0.273</text>
<text text-anchor="middle" x="1073.5" y="-513.8" font-family="Helvetica,sans-Serif" font-size="14.00" fill="#000000">gini = 0.165</text>
<text text-anchor="middle" x="1073.5" y="-498.8" font-family="Helvetica,sans-Serif" font-size="14.00" fill="#000000">samples = 26</text>
<text text-anchor="middle" x="1073.5" y="-483.8" font-family="Helvetica,sans-Serif" font-size="14.00" fill="#000000">value = [40, 4, 0]</text>
<text text-anchor="middle" x="1073.5" y="-468.8" font-family="Helvetica,sans-Serif" font-size="14.00" fill="#000000">class = 0</text>
</g>
<!-- 15&#45;&gt;16 -->
<g id="edge16" class="edge">
<title>15&#45;&gt;16</title>
<path fill="none" stroke="#000000" d="M1111.8647,-579.8796C1107.6226,-571.3236 1103.111,-562.2238 1098.7279,-553.3833"/>
<polygon fill="#000000" stroke="#000000" points="1101.8012,-551.7026 1094.2234,-544.2981 1095.5297,-554.8121 1101.8012,-551.7026"/>
</g>
<!-- 21 -->
<g id="node22" class="node">
<title>21</title>
<path fill="#39e581" stroke="#000000" d="M1326,-536.5C1326,-536.5 1209,-536.5 1209,-536.5 1203,-536.5 1197,-530.5 1197,-524.5 1197,-524.5 1197,-480.5 1197,-480.5 1197,-474.5 1203,-468.5 1209,-468.5 1209,-468.5 1326,-468.5 1326,-468.5 1332,-468.5 1338,-474.5 1338,-480.5 1338,-480.5 1338,-524.5 1338,-524.5 1338,-530.5 1332,-536.5 1326,-536.5"/>
<text text-anchor="middle" x="1267.5" y="-521.3" font-family="Helvetica,sans-Serif" font-size="14.00" fill="#000000">gini = 0.0</text>
<text text-anchor="middle" x="1267.5" y="-506.3" font-family="Helvetica,sans-Serif" font-size="14.00" fill="#000000">samples = 21</text>
<text text-anchor="middle" x="1267.5" y="-491.3" font-family="Helvetica,sans-Serif" font-size="14.00" fill="#000000">value = [0, 34, 0]</text>
<text text-anchor="middle" x="1267.5" y="-476.3" font-family="Helvetica,sans-Serif" font-size="14.00" fill="#000000">class = 1</text>
</g>
<!-- 15&#45;&gt;21 -->
<g id="edge21" class="edge">
<title>15&#45;&gt;21</title>
<path fill="none" stroke="#000000" d="M1179.7164,-579.8796C1193.0642,-568.1138 1207.5785,-555.3197 1220.8904,-543.5855"/>
<polygon fill="#000000" stroke="#000000" points="1223.384,-546.0531 1228.5713,-536.8149 1218.7552,-540.8019 1223.384,-546.0531"/>
</g>
<!-- 17 -->
<g id="node18" class="node">
<title>17</title>
<path fill="#39e581" fill-opacity="0.250980" stroke="#000000" d="M1160,-425C1160,-425 975,-425 975,-425 969,-425 963,-419 963,-413 963,-413 963,-354 963,-354 963,-348 969,-342 975,-342 975,-342 1160,-342 1160,-342 1166,-342 1172,-348 1172,-354 1172,-354 1172,-413 1172,-413 1172,-419 1166,-425 1160,-425"/>
<text text-anchor="middle" x="1067.5" y="-409.8" font-family="Helvetica,sans-Serif" font-size="14.00" fill="#000000">No..of.panCK..ve &lt;= 0.348</text>
<text text-anchor="middle" x="1067.5" y="-394.8" font-family="Helvetica,sans-Serif" font-size="14.00" fill="#000000">gini = 0.49</text>
<text text-anchor="middle" x="1067.5" y="-379.8" font-family="Helvetica,sans-Serif" font-size="14.00" fill="#000000">samples = 4</text>
<text text-anchor="middle" x="1067.5" y="-364.8" font-family="Helvetica,sans-Serif" font-size="14.00" fill="#000000">value = [3, 4, 0]</text>
<text text-anchor="middle" x="1067.5" y="-349.8" font-family="Helvetica,sans-Serif" font-size="14.00" fill="#000000">class = 1</text>
</g>
<!-- 16&#45;&gt;17 -->
<g id="edge17" class="edge">
<title>16&#45;&gt;17</title>
<path fill="none" stroke="#000000" d="M1071.4015,-460.8796C1070.9883,-452.6838 1070.5499,-443.9891 1070.1219,-435.5013"/>
<polygon fill="#000000" stroke="#000000" points="1073.6067,-435.1091 1069.6075,-425.2981 1066.6156,-435.4617 1073.6067,-435.1091"/>
</g>
<!-- 20 -->
<g id="node21" class="node">
<title>20</title>
<path fill="#e58139" stroke="#000000" d="M1319,-417.5C1319,-417.5 1202,-417.5 1202,-417.5 1196,-417.5 1190,-411.5 1190,-405.5 1190,-405.5 1190,-361.5 1190,-361.5 1190,-355.5 1196,-349.5 1202,-349.5 1202,-349.5 1319,-349.5 1319,-349.5 1325,-349.5 1331,-355.5 1331,-361.5 1331,-361.5 1331,-405.5 1331,-405.5 1331,-411.5 1325,-417.5 1319,-417.5"/>
<text text-anchor="middle" x="1260.5" y="-402.3" font-family="Helvetica,sans-Serif" font-size="14.00" fill="#000000">gini = 0.0</text>
<text text-anchor="middle" x="1260.5" y="-387.3" font-family="Helvetica,sans-Serif" font-size="14.00" fill="#000000">samples = 22</text>
<text text-anchor="middle" x="1260.5" y="-372.3" font-family="Helvetica,sans-Serif" font-size="14.00" fill="#000000">value = [37, 0, 0]</text>
<text text-anchor="middle" x="1260.5" y="-357.3" font-family="Helvetica,sans-Serif" font-size="14.00" fill="#000000">class = 0</text>
</g>
<!-- 16&#45;&gt;20 -->
<g id="edge20" class="edge">
<title>16&#45;&gt;20</title>
<path fill="none" stroke="#000000" d="M1138.9035,-460.8796C1158.1752,-448.6158 1179.2024,-435.2348 1198.269,-423.1015"/>
<polygon fill="#000000" stroke="#000000" points="1200.3205,-425.9447 1206.8781,-417.623 1196.5624,-420.039 1200.3205,-425.9447"/>
</g>
<!-- 18 -->
<g id="node19" class="node">
<title>18</title>
<path fill="#39e581" stroke="#000000" d="M1069.5,-298.5C1069.5,-298.5 961.5,-298.5 961.5,-298.5 955.5,-298.5 949.5,-292.5 949.5,-286.5 949.5,-286.5 949.5,-242.5 949.5,-242.5 949.5,-236.5 955.5,-230.5 961.5,-230.5 961.5,-230.5 1069.5,-230.5 1069.5,-230.5 1075.5,-230.5 1081.5,-236.5 1081.5,-242.5 1081.5,-242.5 1081.5,-286.5 1081.5,-286.5 1081.5,-292.5 1075.5,-298.5 1069.5,-298.5"/>
<text text-anchor="middle" x="1015.5" y="-283.3" font-family="Helvetica,sans-Serif" font-size="14.00" fill="#000000">gini = 0.0</text>
<text text-anchor="middle" x="1015.5" y="-268.3" font-family="Helvetica,sans-Serif" font-size="14.00" fill="#000000">samples = 2</text>
<text text-anchor="middle" x="1015.5" y="-253.3" font-family="Helvetica,sans-Serif" font-size="14.00" fill="#000000">value = [0, 4, 0]</text>
<text text-anchor="middle" x="1015.5" y="-238.3" font-family="Helvetica,sans-Serif" font-size="14.00" fill="#000000">class = 1</text>
</g>
<!-- 17&#45;&gt;18 -->
<g id="edge18" class="edge">
<title>17&#45;&gt;18</title>
<path fill="none" stroke="#000000" d="M1049.3129,-341.8796C1044.556,-330.9935 1039.4143,-319.227 1034.6108,-308.2344"/>
<polygon fill="#000000" stroke="#000000" points="1037.7061,-306.5768 1030.4948,-298.8149 1031.2918,-309.3798 1037.7061,-306.5768"/>
</g>
<!-- 19 -->
<g id="node20" class="node">
<title>19</title>
<path fill="#e58139" stroke="#000000" d="M1219.5,-298.5C1219.5,-298.5 1111.5,-298.5 1111.5,-298.5 1105.5,-298.5 1099.5,-292.5 1099.5,-286.5 1099.5,-286.5 1099.5,-242.5 1099.5,-242.5 1099.5,-236.5 1105.5,-230.5 1111.5,-230.5 1111.5,-230.5 1219.5,-230.5 1219.5,-230.5 1225.5,-230.5 1231.5,-236.5 1231.5,-242.5 1231.5,-242.5 1231.5,-286.5 1231.5,-286.5 1231.5,-292.5 1225.5,-298.5 1219.5,-298.5"/>
<text text-anchor="middle" x="1165.5" y="-283.3" font-family="Helvetica,sans-Serif" font-size="14.00" fill="#000000">gini = 0.0</text>
<text text-anchor="middle" x="1165.5" y="-268.3" font-family="Helvetica,sans-Serif" font-size="14.00" fill="#000000">samples = 2</text>
<text text-anchor="middle" x="1165.5" y="-253.3" font-family="Helvetica,sans-Serif" font-size="14.00" fill="#000000">value = [3, 0, 0]</text>
<text text-anchor="middle" x="1165.5" y="-238.3" font-family="Helvetica,sans-Serif" font-size="14.00" fill="#000000">class = 0</text>
</g>
<!-- 17&#45;&gt;19 -->
<g id="edge19" class="edge">
<title>17&#45;&gt;19</title>
<path fill="none" stroke="#000000" d="M1101.7756,-341.8796C1111.1935,-330.4436 1121.4113,-318.0363 1130.85,-306.575"/>
<polygon fill="#000000" stroke="#000000" points="1133.5853,-308.7592 1137.2406,-298.8149 1128.1818,-304.3093 1133.5853,-308.7592"/>
</g>
<!-- 23 -->
<g id="node24" class="node">
<title>23</title>
<path fill="#8139e5" fill-opacity="0.909804" stroke="#000000" d="M1505,-663C1505,-663 1340,-663 1340,-663 1334,-663 1328,-657 1328,-651 1328,-651 1328,-592 1328,-592 1328,-586 1334,-580 1340,-580 1340,-580 1505,-580 1505,-580 1511,-580 1517,-586 1517,-592 1517,-592 1517,-651 1517,-651 1517,-657 1511,-663 1505,-663"/>
<text text-anchor="middle" x="1422.5" y="-647.8" font-family="Helvetica,sans-Serif" font-size="14.00" fill="#000000">Blood.in.urine &lt;= 0.053</text>
<text text-anchor="middle" x="1422.5" y="-632.8" font-family="Helvetica,sans-Serif" font-size="14.00" fill="#000000">gini = 0.153</text>
<text text-anchor="middle" x="1422.5" y="-617.8" font-family="Helvetica,sans-Serif" font-size="14.00" fill="#000000">samples = 10</text>
<text text-anchor="middle" x="1422.5" y="-602.8" font-family="Helvetica,sans-Serif" font-size="14.00" fill="#000000">value = [1, 0, 11]</text>
<text text-anchor="middle" x="1422.5" y="-587.8" font-family="Helvetica,sans-Serif" font-size="14.00" fill="#000000">class = 2</text>
</g>
<!-- 22&#45;&gt;23 -->
<g id="edge23" class="edge">
<title>22&#45;&gt;23</title>
<path fill="none" stroke="#000000" d="M1422.5,-698.8796C1422.5,-690.6838 1422.5,-681.9891 1422.5,-673.5013"/>
<polygon fill="#000000" stroke="#000000" points="1426.0001,-673.298 1422.5,-663.2981 1419.0001,-673.2981 1426.0001,-673.298"/>
</g>
<!-- 28 -->
<g id="node29" class="node">
<title>28</title>
<path fill="#8139e5" stroke="#000000" d="M1664,-655.5C1664,-655.5 1547,-655.5 1547,-655.5 1541,-655.5 1535,-649.5 1535,-643.5 1535,-643.5 1535,-599.5 1535,-599.5 1535,-593.5 1541,-587.5 1547,-587.5 1547,-587.5 1664,-587.5 1664,-587.5 1670,-587.5 1676,-593.5 1676,-599.5 1676,-599.5 1676,-643.5 1676,-643.5 1676,-649.5 1670,-655.5 1664,-655.5"/>
<text text-anchor="middle" x="1605.5" y="-640.3" font-family="Helvetica,sans-Serif" font-size="14.00" fill="#000000">gini = 0.0</text>
<text text-anchor="middle" x="1605.5" y="-625.3" font-family="Helvetica,sans-Serif" font-size="14.00" fill="#000000">samples = 20</text>
<text text-anchor="middle" x="1605.5" y="-610.3" font-family="Helvetica,sans-Serif" font-size="14.00" fill="#000000">value = [0, 0, 36]</text>
<text text-anchor="middle" x="1605.5" y="-595.3" font-family="Helvetica,sans-Serif" font-size="14.00" fill="#000000">class = 2</text>
</g>
<!-- 22&#45;&gt;28 -->
<g id="edge28" class="edge">
<title>22&#45;&gt;28</title>
<path fill="none" stroke="#000000" d="M1486.5045,-698.8796C1505.3639,-686.6158 1525.9414,-673.2348 1544.6002,-661.1015"/>
<polygon fill="#000000" stroke="#000000" points="1546.5497,-664.0088 1553.0251,-655.623 1542.7336,-658.1404 1546.5497,-664.0088"/>
</g>
<!-- 24 -->
<g id="node25" class="node">
<title>24</title>
<path fill="#8139e5" stroke="#000000" d="M1476.5,-536.5C1476.5,-536.5 1368.5,-536.5 1368.5,-536.5 1362.5,-536.5 1356.5,-530.5 1356.5,-524.5 1356.5,-524.5 1356.5,-480.5 1356.5,-480.5 1356.5,-474.5 1362.5,-468.5 1368.5,-468.5 1368.5,-468.5 1476.5,-468.5 1476.5,-468.5 1482.5,-468.5 1488.5,-474.5 1488.5,-480.5 1488.5,-480.5 1488.5,-524.5 1488.5,-524.5 1488.5,-530.5 1482.5,-536.5 1476.5,-536.5"/>
<text text-anchor="middle" x="1422.5" y="-521.3" font-family="Helvetica,sans-Serif" font-size="14.00" fill="#000000">gini = 0.0</text>
<text text-anchor="middle" x="1422.5" y="-506.3" font-family="Helvetica,sans-Serif" font-size="14.00" fill="#000000">samples = 5</text>
<text text-anchor="middle" x="1422.5" y="-491.3" font-family="Helvetica,sans-Serif" font-size="14.00" fill="#000000">value = [0, 0, 6]</text>
<text text-anchor="middle" x="1422.5" y="-476.3" font-family="Helvetica,sans-Serif" font-size="14.00" fill="#000000">class = 2</text>
</g>
<!-- 23&#45;&gt;24 -->
<g id="edge24" class="edge">
<title>23&#45;&gt;24</title>
<path fill="none" stroke="#000000" d="M1422.5,-579.8796C1422.5,-569.2134 1422.5,-557.7021 1422.5,-546.9015"/>
<polygon fill="#000000" stroke="#000000" points="1426.0001,-546.8149 1422.5,-536.8149 1419.0001,-546.815 1426.0001,-546.8149"/>
</g>
<!-- 25 -->
<g id="node26" class="node">
<title>25</title>
<path fill="#8139e5" fill-opacity="0.800000" stroke="#000000" d="M1736.5,-544C1736.5,-544 1518.5,-544 1518.5,-544 1512.5,-544 1506.5,-538 1506.5,-532 1506.5,-532 1506.5,-473 1506.5,-473 1506.5,-467 1512.5,-461 1518.5,-461 1518.5,-461 1736.5,-461 1736.5,-461 1742.5,-461 1748.5,-467 1748.5,-473 1748.5,-473 1748.5,-532 1748.5,-532 1748.5,-538 1742.5,-544 1736.5,-544"/>
<text text-anchor="middle" x="1627.5" y="-528.8" font-family="Helvetica,sans-Serif" font-size="14.00" fill="#000000">No..of.MCM2.panCk..ve &lt;= &#45;0.4</text>
<text text-anchor="middle" x="1627.5" y="-513.8" font-family="Helvetica,sans-Serif" font-size="14.00" fill="#000000">gini = 0.278</text>
<text text-anchor="middle" x="1627.5" y="-498.8" font-family="Helvetica,sans-Serif" font-size="14.00" fill="#000000">samples = 5</text>
<text text-anchor="middle" x="1627.5" y="-483.8" font-family="Helvetica,sans-Serif" font-size="14.00" fill="#000000">value = [1, 0, 5]</text>
<text text-anchor="middle" x="1627.5" y="-468.8" font-family="Helvetica,sans-Serif" font-size="14.00" fill="#000000">class = 2</text>
</g>
<!-- 23&#45;&gt;25 -->
<g id="edge25" class="edge">
<title>23&#45;&gt;25</title>
<path fill="none" stroke="#000000" d="M1494.1991,-579.8796C1511.2088,-570.0056 1529.4661,-559.4075 1546.8448,-549.3193"/>
<polygon fill="#000000" stroke="#000000" points="1548.9501,-552.1443 1555.8414,-544.0969 1545.4358,-546.0903 1548.9501,-552.1443"/>
</g>
<!-- 26 -->
<g id="node27" class="node">
<title>26</title>
<path fill="#e58139" stroke="#000000" d="M1606.5,-417.5C1606.5,-417.5 1498.5,-417.5 1498.5,-417.5 1492.5,-417.5 1486.5,-411.5 1486.5,-405.5 1486.5,-405.5 1486.5,-361.5 1486.5,-361.5 1486.5,-355.5 1492.5,-349.5 1498.5,-349.5 1498.5,-349.5 1606.5,-349.5 1606.5,-349.5 1612.5,-349.5 1618.5,-355.5 1618.5,-361.5 1618.5,-361.5 1618.5,-405.5 1618.5,-405.5 1618.5,-411.5 1612.5,-417.5 1606.5,-417.5"/>
<text text-anchor="middle" x="1552.5" y="-402.3" font-family="Helvetica,sans-Serif" font-size="14.00" fill="#000000">gini = 0.0</text>
<text text-anchor="middle" x="1552.5" y="-387.3" font-family="Helvetica,sans-Serif" font-size="14.00" fill="#000000">samples = 1</text>
<text text-anchor="middle" x="1552.5" y="-372.3" font-family="Helvetica,sans-Serif" font-size="14.00" fill="#000000">value = [1, 0, 0]</text>
<text text-anchor="middle" x="1552.5" y="-357.3" font-family="Helvetica,sans-Serif" font-size="14.00" fill="#000000">class = 0</text>
</g>
<!-- 25&#45;&gt;26 -->
<g id="edge26" class="edge">
<title>25&#45;&gt;26</title>
<path fill="none" stroke="#000000" d="M1601.2686,-460.8796C1594.269,-449.7735 1586.692,-437.7513 1579.6444,-426.5691"/>
<polygon fill="#000000" stroke="#000000" points="1582.42,-424.4087 1574.1271,-417.8149 1576.498,-428.1411 1582.42,-424.4087"/>
</g>
<!-- 27 -->
<g id="node28" class="node">
<title>27</title>
<path fill="#8139e5" stroke="#000000" d="M1756.5,-417.5C1756.5,-417.5 1648.5,-417.5 1648.5,-417.5 1642.5,-417.5 1636.5,-411.5 1636.5,-405.5 1636.5,-405.5 1636.5,-361.5 1636.5,-361.5 1636.5,-355.5 1642.5,-349.5 1648.5,-349.5 1648.5,-349.5 1756.5,-349.5 1756.5,-349.5 1762.5,-349.5 1768.5,-355.5 1768.5,-361.5 1768.5,-361.5 1768.5,-405.5 1768.5,-405.5 1768.5,-411.5 1762.5,-417.5 1756.5,-417.5"/>
<text text-anchor="middle" x="1702.5" y="-402.3" font-family="Helvetica,sans-Serif" font-size="14.00" fill="#000000">gini = 0.0</text>
<text text-anchor="middle" x="1702.5" y="-387.3" font-family="Helvetica,sans-Serif" font-size="14.00" fill="#000000">samples = 4</text>
<text text-anchor="middle" x="1702.5" y="-372.3" font-family="Helvetica,sans-Serif" font-size="14.00" fill="#000000">value = [0, 0, 5]</text>
<text text-anchor="middle" x="1702.5" y="-357.3" font-family="Helvetica,sans-Serif" font-size="14.00" fill="#000000">class = 2</text>
</g>
<!-- 25&#45;&gt;27 -->
<g id="edge27" class="edge">
<title>25&#45;&gt;27</title>
<path fill="none" stroke="#000000" d="M1653.7314,-460.8796C1660.731,-449.7735 1668.308,-437.7513 1675.3556,-426.5691"/>
<polygon fill="#000000" stroke="#000000" points="1678.502,-428.1411 1680.8729,-417.8149 1672.58,-424.4087 1678.502,-428.1411"/>
</g>
</g>
</svg>
