<?xml version="1.0" encoding="UTF-8" standalone="no"?>
<!DOCTYPE svg PUBLIC "-//W3C//DTD SVG 1.1//EN"
 "http://www.w3.org/Graphics/SVG/1.1/DTD/svg11.dtd">
<!-- Generated by graphviz version 2.40.1 (20161225.0304)
 -->
<!-- Title: Tree Pages: 1 -->
<svg width="1738pt" height="909pt"
 viewBox="0.00 0.00 1738.00 909.00" xmlns="http://www.w3.org/2000/svg" xmlns:xlink="http://www.w3.org/1999/xlink">
<g id="graph0" class="graph" transform="scale(1 1) rotate(0) translate(4 905)">
<title>Tree</title>
<polygon fill="#ffffff" stroke="transparent" points="-4,4 -4,-905 1734,-905 1734,4 -4,4"/>
<!-- 0 -->
<g id="node1" class="node">
<title>0</title>
<path fill="#e58139" fill-opacity="0.427451" stroke="#000000" d="M966.5,-901C966.5,-901 801.5,-901 801.5,-901 795.5,-901 789.5,-895 789.5,-889 789.5,-889 789.5,-830 789.5,-830 789.5,-824 795.5,-818 801.5,-818 801.5,-818 966.5,-818 966.5,-818 972.5,-818 978.5,-824 978.5,-830 978.5,-830 978.5,-889 978.5,-889 978.5,-895 972.5,-901 966.5,-901"/>
<text text-anchor="middle" x="884" y="-885.8" font-family="Helvetica,sans-Serif" font-size="14.00" fill="#000000">Blood.in.urine &lt;= 0.053</text>
<text text-anchor="middle" x="884" y="-870.8" font-family="Helvetica,sans-Serif" font-size="14.00" fill="#000000">gini = 0.592</text>
<text text-anchor="middle" x="884" y="-855.8" font-family="Helvetica,sans-Serif" font-size="14.00" fill="#000000">samples = 141</text>
<text text-anchor="middle" x="884" y="-840.8" font-family="Helvetica,sans-Serif" font-size="14.00" fill="#000000">value = [123, 50, 48]</text>
<text text-anchor="middle" x="884" y="-825.8" font-family="Helvetica,sans-Serif" font-size="14.00" fill="#000000">class = 0</text>
</g>
<!-- 1 -->
<g id="node2" class="node">
<title>1</title>
<path fill="#e58139" fill-opacity="0.745098" stroke="#000000" d="M793,-782C793,-782 649,-782 649,-782 643,-782 637,-776 637,-770 637,-770 637,-711 637,-711 637,-705 643,-699 649,-699 649,-699 793,-699 793,-699 799,-699 805,-705 805,-711 805,-711 805,-770 805,-770 805,-776 799,-782 793,-782"/>
<text text-anchor="middle" x="721" y="-766.8" font-family="Helvetica,sans-Serif" font-size="14.00" fill="#000000">Cancer &lt;= 1.122</text>
<text text-anchor="middle" x="721" y="-751.8" font-family="Helvetica,sans-Serif" font-size="14.00" fill="#000000">gini = 0.359</text>
<text text-anchor="middle" x="721" y="-736.8" font-family="Helvetica,sans-Serif" font-size="14.00" fill="#000000">samples = 97</text>
<text text-anchor="middle" x="721" y="-721.8" font-family="Helvetica,sans-Serif" font-size="14.00" fill="#000000">value = [123, 10, 24]</text>
<text text-anchor="middle" x="721" y="-706.8" font-family="Helvetica,sans-Serif" font-size="14.00" fill="#000000">class = 0</text>
</g>
<!-- 0&#45;&gt;1 -->
<g id="edge1" class="edge">
<title>0&#45;&gt;1</title>
<path fill="none" stroke="#000000" d="M826.9905,-817.8796C813.8379,-808.2774 799.7472,-797.9903 786.2732,-788.1534"/>
<polygon fill="#000000" stroke="#000000" points="788.1177,-785.1666 777.9773,-782.0969 783.9902,-790.8202 788.1177,-785.1666"/>
<text text-anchor="middle" x="781.8314" y="-803.0981" font-family="Helvetica,sans-Serif" font-size="14.00" fill="#000000">True</text>
</g>
<!-- 18 -->
<g id="node19" class="node">
<title>18</title>
<path fill="#39e581" fill-opacity="0.400000" stroke="#000000" d="M1217.5,-782C1217.5,-782 886.5,-782 886.5,-782 880.5,-782 874.5,-776 874.5,-770 874.5,-770 874.5,-711 874.5,-711 874.5,-705 880.5,-699 886.5,-699 886.5,-699 1217.5,-699 1217.5,-699 1223.5,-699 1229.5,-705 1229.5,-711 1229.5,-711 1229.5,-770 1229.5,-770 1229.5,-776 1223.5,-782 1217.5,-782"/>
<text text-anchor="middle" x="1052" y="-766.8" font-family="Helvetica,sans-Serif" font-size="14.00" fill="#000000">No..of.Nucleus.without.coexpression &lt;= &#45;0.035</text>
<text text-anchor="middle" x="1052" y="-751.8" font-family="Helvetica,sans-Serif" font-size="14.00" fill="#000000">gini = 0.469</text>
<text text-anchor="middle" x="1052" y="-736.8" font-family="Helvetica,sans-Serif" font-size="14.00" fill="#000000">samples = 44</text>
<text text-anchor="middle" x="1052" y="-721.8" font-family="Helvetica,sans-Serif" font-size="14.00" fill="#000000">value = [0, 40, 24]</text>
<text text-anchor="middle" x="1052" y="-706.8" font-family="Helvetica,sans-Serif" font-size="14.00" fill="#000000">class = 1</text>
</g>
<!-- 0&#45;&gt;18 -->
<g id="edge18" class="edge">
<title>0&#45;&gt;18</title>
<path fill="none" stroke="#000000" d="M942.7582,-817.8796C956.3143,-808.2774 970.8372,-797.9903 984.7246,-788.1534"/>
<polygon fill="#000000" stroke="#000000" points="987.1377,-790.7332 993.2749,-782.0969 983.0916,-785.021 987.1377,-790.7332"/>
<text text-anchor="middle" x="989.0675" y="-803.0403" font-family="Helvetica,sans-Serif" font-size="14.00" fill="#000000">False</text>
</g>
<!-- 2 -->
<g id="node3" class="node">
<title>2</title>
<path fill="#e58139" fill-opacity="0.819608" stroke="#000000" d="M522,-663C522,-663 380,-663 380,-663 374,-663 368,-657 368,-651 368,-651 368,-592 368,-592 368,-586 374,-580 380,-580 380,-580 522,-580 522,-580 528,-580 534,-586 534,-592 534,-592 534,-651 534,-651 534,-657 528,-663 522,-663"/>
<text text-anchor="middle" x="451" y="-647.8" font-family="Helvetica,sans-Serif" font-size="14.00" fill="#000000">Previos.BC &lt;= 0.686</text>
<text text-anchor="middle" x="451" y="-632.8" font-family="Helvetica,sans-Serif" font-size="14.00" fill="#000000">gini = 0.274</text>
<text text-anchor="middle" x="451" y="-617.8" font-family="Helvetica,sans-Serif" font-size="14.00" fill="#000000">samples = 92</text>
<text text-anchor="middle" x="451" y="-602.8" font-family="Helvetica,sans-Serif" font-size="14.00" fill="#000000">value = [123, 5, 18]</text>
<text text-anchor="middle" x="451" y="-587.8" font-family="Helvetica,sans-Serif" font-size="14.00" fill="#000000">class = 0</text>
</g>
<!-- 1&#45;&gt;2 -->
<g id="edge2" class="edge">
<title>1&#45;&gt;2</title>
<path fill="none" stroke="#000000" d="M636.6809,-703.3371C607.0939,-690.2969 573.7075,-675.5822 543.4866,-662.2626"/>
<polygon fill="#000000" stroke="#000000" points="544.7793,-659.0075 534.2171,-658.1771 541.9561,-665.413 544.7793,-659.0075"/>
</g>
<!-- 15 -->
<g id="node16" class="node">
<title>15</title>
<path fill="#8139e5" fill-opacity="0.164706" stroke="#000000" d="M839,-663C839,-663 603,-663 603,-663 597,-663 591,-657 591,-651 591,-651 591,-592 591,-592 591,-586 597,-580 603,-580 603,-580 839,-580 839,-580 845,-580 851,-586 851,-592 851,-592 851,-651 851,-651 851,-657 845,-663 839,-663"/>
<text text-anchor="middle" x="721" y="-647.8" font-family="Helvetica,sans-Serif" font-size="14.00" fill="#000000">No..of.MCM2.panCk..ve &lt;= &#45;0.618</text>
<text text-anchor="middle" x="721" y="-632.8" font-family="Helvetica,sans-Serif" font-size="14.00" fill="#000000">gini = 0.496</text>
<text text-anchor="middle" x="721" y="-617.8" font-family="Helvetica,sans-Serif" font-size="14.00" fill="#000000">samples = 5</text>
<text text-anchor="middle" x="721" y="-602.8" font-family="Helvetica,sans-Serif" font-size="14.00" fill="#000000">value = [0, 5, 6]</text>
<text text-anchor="middle" x="721" y="-587.8" font-family="Helvetica,sans-Serif" font-size="14.00" fill="#000000">class = 2</text>
</g>
<!-- 1&#45;&gt;15 -->
<g id="edge15" class="edge">
<title>1&#45;&gt;15</title>
<path fill="none" stroke="#000000" d="M721,-698.8796C721,-690.6838 721,-681.9891 721,-673.5013"/>
<polygon fill="#000000" stroke="#000000" points="724.5001,-673.298 721,-663.2981 717.5001,-673.2981 724.5001,-673.298"/>
</g>
<!-- 3 -->
<g id="node4" class="node">
<title>3</title>
<path fill="#e58139" fill-opacity="0.960784" stroke="#000000" d="M350.5,-544C350.5,-544 109.5,-544 109.5,-544 103.5,-544 97.5,-538 97.5,-532 97.5,-532 97.5,-473 97.5,-473 97.5,-467 103.5,-461 109.5,-461 109.5,-461 350.5,-461 350.5,-461 356.5,-461 362.5,-467 362.5,-473 362.5,-473 362.5,-532 362.5,-532 362.5,-538 356.5,-544 350.5,-544"/>
<text text-anchor="middle" x="230" y="-528.8" font-family="Helvetica,sans-Serif" font-size="14.00" fill="#000000">MCM.2.mean.std.panCK &lt;= &#45;1.781</text>
<text text-anchor="middle" x="230" y="-513.8" font-family="Helvetica,sans-Serif" font-size="14.00" fill="#000000">gini = 0.075</text>
<text text-anchor="middle" x="230" y="-498.8" font-family="Helvetica,sans-Serif" font-size="14.00" fill="#000000">samples = 80</text>
<text text-anchor="middle" x="230" y="-483.8" font-family="Helvetica,sans-Serif" font-size="14.00" fill="#000000">value = [123, 5, 0]</text>
<text text-anchor="middle" x="230" y="-468.8" font-family="Helvetica,sans-Serif" font-size="14.00" fill="#000000">class = 0</text>
</g>
<!-- 2&#45;&gt;3 -->
<g id="edge3" class="edge">
<title>2&#45;&gt;3</title>
<path fill="none" stroke="#000000" d="M373.7049,-579.8796C355.1152,-569.8697 335.1433,-559.1156 316.1773,-548.9031"/>
<polygon fill="#000000" stroke="#000000" points="317.7155,-545.7563 307.2514,-544.0969 314.3968,-551.9196 317.7155,-545.7563"/>
</g>
<!-- 14 -->
<g id="node15" class="node">
<title>14</title>
<path fill="#8139e5" stroke="#000000" d="M509.5,-536.5C509.5,-536.5 392.5,-536.5 392.5,-536.5 386.5,-536.5 380.5,-530.5 380.5,-524.5 380.5,-524.5 380.5,-480.5 380.5,-480.5 380.5,-474.5 386.5,-468.5 392.5,-468.5 392.5,-468.5 509.5,-468.5 509.5,-468.5 515.5,-468.5 521.5,-474.5 521.5,-480.5 521.5,-480.5 521.5,-524.5 521.5,-524.5 521.5,-530.5 515.5,-536.5 509.5,-536.5"/>
<text text-anchor="middle" x="451" y="-521.3" font-family="Helvetica,sans-Serif" font-size="14.00" fill="#000000">gini = 0.0</text>
<text text-anchor="middle" x="451" y="-506.3" font-family="Helvetica,sans-Serif" font-size="14.00" fill="#000000">samples = 12</text>
<text text-anchor="middle" x="451" y="-491.3" font-family="Helvetica,sans-Serif" font-size="14.00" fill="#000000">value = [0, 0, 18]</text>
<text text-anchor="middle" x="451" y="-476.3" font-family="Helvetica,sans-Serif" font-size="14.00" fill="#000000">class = 2</text>
</g>
<!-- 2&#45;&gt;14 -->
<g id="edge14" class="edge">
<title>2&#45;&gt;14</title>
<path fill="none" stroke="#000000" d="M451,-579.8796C451,-569.2134 451,-557.7021 451,-546.9015"/>
<polygon fill="#000000" stroke="#000000" points="454.5001,-546.8149 451,-536.8149 447.5001,-546.815 454.5001,-546.8149"/>
</g>
<!-- 4 -->
<g id="node5" class="node">
<title>4</title>
<path fill="#39e581" stroke="#000000" d="M190,-417.5C190,-417.5 82,-417.5 82,-417.5 76,-417.5 70,-411.5 70,-405.5 70,-405.5 70,-361.5 70,-361.5 70,-355.5 76,-349.5 82,-349.5 82,-349.5 190,-349.5 190,-349.5 196,-349.5 202,-355.5 202,-361.5 202,-361.5 202,-405.5 202,-405.5 202,-411.5 196,-417.5 190,-417.5"/>
<text text-anchor="middle" x="136" y="-402.3" font-family="Helvetica,sans-Serif" font-size="14.00" fill="#000000">gini = 0.0</text>
<text text-anchor="middle" x="136" y="-387.3" font-family="Helvetica,sans-Serif" font-size="14.00" fill="#000000">samples = 1</text>
<text text-anchor="middle" x="136" y="-372.3" font-family="Helvetica,sans-Serif" font-size="14.00" fill="#000000">value = [0, 1, 0]</text>
<text text-anchor="middle" x="136" y="-357.3" font-family="Helvetica,sans-Serif" font-size="14.00" fill="#000000">class = 1</text>
</g>
<!-- 3&#45;&gt;4 -->
<g id="edge4" class="edge">
<title>3&#45;&gt;4</title>
<path fill="none" stroke="#000000" d="M197.1234,-460.8796C188.1768,-449.5536 178.4776,-437.2748 169.4971,-425.9058"/>
<polygon fill="#000000" stroke="#000000" points="172.051,-423.4926 163.1059,-417.8149 166.558,-427.8316 172.051,-423.4926"/>
</g>
<!-- 5 -->
<g id="node6" class="node">
<title>5</title>
<path fill="#e58139" fill-opacity="0.968627" stroke="#000000" d="M459.5,-425C459.5,-425 232.5,-425 232.5,-425 226.5,-425 220.5,-419 220.5,-413 220.5,-413 220.5,-354 220.5,-354 220.5,-348 226.5,-342 232.5,-342 232.5,-342 459.5,-342 459.5,-342 465.5,-342 471.5,-348 471.5,-354 471.5,-354 471.5,-413 471.5,-413 471.5,-419 465.5,-425 459.5,-425"/>
<text text-anchor="middle" x="346" y="-409.8" font-family="Helvetica,sans-Serif" font-size="14.00" fill="#000000">MCM.2.mean.std.panCK &lt;= 1.49</text>
<text text-anchor="middle" x="346" y="-394.8" font-family="Helvetica,sans-Serif" font-size="14.00" fill="#000000">gini = 0.061</text>
<text text-anchor="middle" x="346" y="-379.8" font-family="Helvetica,sans-Serif" font-size="14.00" fill="#000000">samples = 79</text>
<text text-anchor="middle" x="346" y="-364.8" font-family="Helvetica,sans-Serif" font-size="14.00" fill="#000000">value = [123, 4, 0]</text>
<text text-anchor="middle" x="346" y="-349.8" font-family="Helvetica,sans-Serif" font-size="14.00" fill="#000000">class = 0</text>
</g>
<!-- 3&#45;&gt;5 -->
<g id="edge5" class="edge">
<title>3&#45;&gt;5</title>
<path fill="none" stroke="#000000" d="M270.5712,-460.8796C279.4382,-451.7832 288.9044,-442.0722 298.0291,-432.7116"/>
<polygon fill="#000000" stroke="#000000" points="300.7817,-434.9019 305.2557,-425.2981 295.7691,-430.0158 300.7817,-434.9019"/>
</g>
<!-- 6 -->
<g id="node7" class="node">
<title>6</title>
<path fill="#e58139" fill-opacity="0.992157" stroke="#000000" d="M385.5,-306C385.5,-306 200.5,-306 200.5,-306 194.5,-306 188.5,-300 188.5,-294 188.5,-294 188.5,-235 188.5,-235 188.5,-229 194.5,-223 200.5,-223 200.5,-223 385.5,-223 385.5,-223 391.5,-223 397.5,-229 397.5,-235 397.5,-235 397.5,-294 397.5,-294 397.5,-300 391.5,-306 385.5,-306"/>
<text text-anchor="middle" x="293" y="-290.8" font-family="Helvetica,sans-Serif" font-size="14.00" fill="#000000">No..of.panCK..ve &lt;= 2.401</text>
<text text-anchor="middle" x="293" y="-275.8" font-family="Helvetica,sans-Serif" font-size="14.00" fill="#000000">gini = 0.017</text>
<text text-anchor="middle" x="293" y="-260.8" font-family="Helvetica,sans-Serif" font-size="14.00" fill="#000000">samples = 75</text>
<text text-anchor="middle" x="293" y="-245.8" font-family="Helvetica,sans-Serif" font-size="14.00" fill="#000000">value = [117, 1, 0]</text>
<text text-anchor="middle" x="293" y="-230.8" font-family="Helvetica,sans-Serif" font-size="14.00" fill="#000000">class = 0</text>
</g>
<!-- 5&#45;&gt;6 -->
<g id="edge6" class="edge">
<title>5&#45;&gt;6</title>
<path fill="none" stroke="#000000" d="M327.4632,-341.8796C323.6926,-333.4136 319.685,-324.4153 315.7867,-315.6626"/>
<polygon fill="#000000" stroke="#000000" points="318.8817,-314.009 311.6159,-306.2981 312.4873,-316.857 318.8817,-314.009"/>
</g>
<!-- 11 -->
<g id="node12" class="node">
<title>11</title>
<path fill="#e58139" fill-opacity="0.498039" stroke="#000000" d="M606,-306C606,-306 428,-306 428,-306 422,-306 416,-300 416,-294 416,-294 416,-235 416,-235 416,-229 422,-223 428,-223 428,-223 606,-223 606,-223 612,-223 618,-229 618,-235 618,-235 618,-294 618,-294 618,-300 612,-306 606,-306"/>
<text text-anchor="middle" x="517" y="-290.8" font-family="Helvetica,sans-Serif" font-size="14.00" fill="#000000">No..of.MCM2..ve &lt;= &#45;0.24</text>
<text text-anchor="middle" x="517" y="-275.8" font-family="Helvetica,sans-Serif" font-size="14.00" fill="#000000">gini = 0.444</text>
<text text-anchor="middle" x="517" y="-260.8" font-family="Helvetica,sans-Serif" font-size="14.00" fill="#000000">samples = 4</text>
<text text-anchor="middle" x="517" y="-245.8" font-family="Helvetica,sans-Serif" font-size="14.00" fill="#000000">value = [6, 3, 0]</text>
<text text-anchor="middle" x="517" y="-230.8" font-family="Helvetica,sans-Serif" font-size="14.00" fill="#000000">class = 0</text>
</g>
<!-- 5&#45;&gt;11 -->
<g id="edge11" class="edge">
<title>5&#45;&gt;11</title>
<path fill="none" stroke="#000000" d="M405.8075,-341.8796C419.7358,-332.1868 434.6669,-321.7961 448.9231,-311.8752"/>
<polygon fill="#000000" stroke="#000000" points="451.0174,-314.6819 457.2263,-306.0969 447.0189,-308.9362 451.0174,-314.6819"/>
</g>
<!-- 7 -->
<g id="node8" class="node">
<title>7</title>
<path fill="#e58139" stroke="#000000" d="M138,-179.5C138,-179.5 12,-179.5 12,-179.5 6,-179.5 0,-173.5 0,-167.5 0,-167.5 0,-123.5 0,-123.5 0,-117.5 6,-111.5 12,-111.5 12,-111.5 138,-111.5 138,-111.5 144,-111.5 150,-117.5 150,-123.5 150,-123.5 150,-167.5 150,-167.5 150,-173.5 144,-179.5 138,-179.5"/>
<text text-anchor="middle" x="75" y="-164.3" font-family="Helvetica,sans-Serif" font-size="14.00" fill="#000000">gini = 0.0</text>
<text text-anchor="middle" x="75" y="-149.3" font-family="Helvetica,sans-Serif" font-size="14.00" fill="#000000">samples = 72</text>
<text text-anchor="middle" x="75" y="-134.3" font-family="Helvetica,sans-Serif" font-size="14.00" fill="#000000">value = [114, 0, 0]</text>
<text text-anchor="middle" x="75" y="-119.3" font-family="Helvetica,sans-Serif" font-size="14.00" fill="#000000">class = 0</text>
</g>
<!-- 6&#45;&gt;7 -->
<g id="edge7" class="edge">
<title>6&#45;&gt;7</title>
<path fill="none" stroke="#000000" d="M216.7542,-222.8796C193.883,-210.3948 168.8907,-196.7523 146.3481,-184.4469"/>
<polygon fill="#000000" stroke="#000000" points="147.9655,-181.3423 137.5111,-179.623 144.6115,-187.4865 147.9655,-181.3423"/>
</g>
<!-- 8 -->
<g id="node9" class="node">
<title>8</title>
<path fill="#e58139" fill-opacity="0.666667" stroke="#000000" d="M411.5,-187C411.5,-187 180.5,-187 180.5,-187 174.5,-187 168.5,-181 168.5,-175 168.5,-175 168.5,-116 168.5,-116 168.5,-110 174.5,-104 180.5,-104 180.5,-104 411.5,-104 411.5,-104 417.5,-104 423.5,-110 423.5,-116 423.5,-116 423.5,-175 423.5,-175 423.5,-181 417.5,-187 411.5,-187"/>
<text text-anchor="middle" x="296" y="-171.8" font-family="Helvetica,sans-Serif" font-size="14.00" fill="#000000">No..of.MCM2.panCk..ve &lt;= 1.256</text>
<text text-anchor="middle" x="296" y="-156.8" font-family="Helvetica,sans-Serif" font-size="14.00" fill="#000000">gini = 0.375</text>
<text text-anchor="middle" x="296" y="-141.8" font-family="Helvetica,sans-Serif" font-size="14.00" fill="#000000">samples = 3</text>
<text text-anchor="middle" x="296" y="-126.8" font-family="Helvetica,sans-Serif" font-size="14.00" fill="#000000">value = [3, 1, 0]</text>
<text text-anchor="middle" x="296" y="-111.8" font-family="Helvetica,sans-Serif" font-size="14.00" fill="#000000">class = 0</text>
</g>
<!-- 6&#45;&gt;8 -->
<g id="edge8" class="edge">
<title>6&#45;&gt;8</title>
<path fill="none" stroke="#000000" d="M294.0493,-222.8796C294.2559,-214.6838 294.4751,-205.9891 294.689,-197.5013"/>
<polygon fill="#000000" stroke="#000000" points="298.193,-197.3831 294.9463,-187.2981 291.1953,-197.2067 298.193,-197.3831"/>
</g>
<!-- 9 -->
<g id="node10" class="node">
<title>9</title>
<path fill="#e58139" stroke="#000000" d="M275,-68C275,-68 167,-68 167,-68 161,-68 155,-62 155,-56 155,-56 155,-12 155,-12 155,-6 161,0 167,0 167,0 275,0 275,0 281,0 287,-6 287,-12 287,-12 287,-56 287,-56 287,-62 281,-68 275,-68"/>
<text text-anchor="middle" x="221" y="-52.8" font-family="Helvetica,sans-Serif" font-size="14.00" fill="#000000">gini = 0.0</text>
<text text-anchor="middle" x="221" y="-37.8" font-family="Helvetica,sans-Serif" font-size="14.00" fill="#000000">samples = 2</text>
<text text-anchor="middle" x="221" y="-22.8" font-family="Helvetica,sans-Serif" font-size="14.00" fill="#000000">value = [3, 0, 0]</text>
<text text-anchor="middle" x="221" y="-7.8" font-family="Helvetica,sans-Serif" font-size="14.00" fill="#000000">class = 0</text>
</g>
<!-- 8&#45;&gt;9 -->
<g id="edge9" class="edge">
<title>8&#45;&gt;9</title>
<path fill="none" stroke="#000000" d="M268.0728,-103.9815C262.0762,-95.0666 255.7296,-85.6313 249.7041,-76.6734"/>
<polygon fill="#000000" stroke="#000000" points="252.5328,-74.6078 244.0473,-68.2637 246.7245,-78.5147 252.5328,-74.6078"/>
</g>
<!-- 10 -->
<g id="node11" class="node">
<title>10</title>
<path fill="#39e581" stroke="#000000" d="M425,-68C425,-68 317,-68 317,-68 311,-68 305,-62 305,-56 305,-56 305,-12 305,-12 305,-6 311,0 317,0 317,0 425,0 425,0 431,0 437,-6 437,-12 437,-12 437,-56 437,-56 437,-62 431,-68 425,-68"/>
<text text-anchor="middle" x="371" y="-52.8" font-family="Helvetica,sans-Serif" font-size="14.00" fill="#000000">gini = 0.0</text>
<text text-anchor="middle" x="371" y="-37.8" font-family="Helvetica,sans-Serif" font-size="14.00" fill="#000000">samples = 1</text>
<text text-anchor="middle" x="371" y="-22.8" font-family="Helvetica,sans-Serif" font-size="14.00" fill="#000000">value = [0, 1, 0]</text>
<text text-anchor="middle" x="371" y="-7.8" font-family="Helvetica,sans-Serif" font-size="14.00" fill="#000000">class = 1</text>
</g>
<!-- 8&#45;&gt;10 -->
<g id="edge10" class="edge">
<title>8&#45;&gt;10</title>
<path fill="none" stroke="#000000" d="M323.9272,-103.9815C329.9238,-95.0666 336.2704,-85.6313 342.2959,-76.6734"/>
<polygon fill="#000000" stroke="#000000" points="345.2755,-78.5147 347.9527,-68.2637 339.4672,-74.6078 345.2755,-78.5147"/>
</g>
<!-- 12 -->
<g id="node13" class="node">
<title>12</title>
<path fill="#39e581" stroke="#000000" d="M568,-179.5C568,-179.5 460,-179.5 460,-179.5 454,-179.5 448,-173.5 448,-167.5 448,-167.5 448,-123.5 448,-123.5 448,-117.5 454,-111.5 460,-111.5 460,-111.5 568,-111.5 568,-111.5 574,-111.5 580,-117.5 580,-123.5 580,-123.5 580,-167.5 580,-167.5 580,-173.5 574,-179.5 568,-179.5"/>
<text text-anchor="middle" x="514" y="-164.3" font-family="Helvetica,sans-Serif" font-size="14.00" fill="#000000">gini = 0.0</text>
<text text-anchor="middle" x="514" y="-149.3" font-family="Helvetica,sans-Serif" font-size="14.00" fill="#000000">samples = 1</text>
<text text-anchor="middle" x="514" y="-134.3" font-family="Helvetica,sans-Serif" font-size="14.00" fill="#000000">value = [0, 3, 0]</text>
<text text-anchor="middle" x="514" y="-119.3" font-family="Helvetica,sans-Serif" font-size="14.00" fill="#000000">class = 1</text>
</g>
<!-- 11&#45;&gt;12 -->
<g id="edge12" class="edge">
<title>11&#45;&gt;12</title>
<path fill="none" stroke="#000000" d="M515.9507,-222.8796C515.6818,-212.2134 515.3916,-200.7021 515.1194,-189.9015"/>
<polygon fill="#000000" stroke="#000000" points="518.6161,-189.7235 514.8651,-179.8149 511.6183,-189.9 518.6161,-189.7235"/>
</g>
<!-- 13 -->
<g id="node14" class="node">
<title>13</title>
<path fill="#e58139" stroke="#000000" d="M718,-179.5C718,-179.5 610,-179.5 610,-179.5 604,-179.5 598,-173.5 598,-167.5 598,-167.5 598,-123.5 598,-123.5 598,-117.5 604,-111.5 610,-111.5 610,-111.5 718,-111.5 718,-111.5 724,-111.5 730,-117.5 730,-123.5 730,-123.5 730,-167.5 730,-167.5 730,-173.5 724,-179.5 718,-179.5"/>
<text text-anchor="middle" x="664" y="-164.3" font-family="Helvetica,sans-Serif" font-size="14.00" fill="#000000">gini = 0.0</text>
<text text-anchor="middle" x="664" y="-149.3" font-family="Helvetica,sans-Serif" font-size="14.00" fill="#000000">samples = 3</text>
<text text-anchor="middle" x="664" y="-134.3" font-family="Helvetica,sans-Serif" font-size="14.00" fill="#000000">value = [6, 0, 0]</text>
<text text-anchor="middle" x="664" y="-119.3" font-family="Helvetica,sans-Serif" font-size="14.00" fill="#000000">class = 0</text>
</g>
<!-- 11&#45;&gt;13 -->
<g id="edge13" class="edge">
<title>11&#45;&gt;13</title>
<path fill="none" stroke="#000000" d="M568.4135,-222.8796C583.0835,-211.0038 599.0477,-198.0804 613.6533,-186.2568"/>
<polygon fill="#000000" stroke="#000000" points="616.0407,-188.8273 621.611,-179.8149 611.6363,-183.3866 616.0407,-188.8273"/>
</g>
<!-- 16 -->
<g id="node17" class="node">
<title>16</title>
<path fill="#39e581" stroke="#000000" d="M660,-536.5C660,-536.5 552,-536.5 552,-536.5 546,-536.5 540,-530.5 540,-524.5 540,-524.5 540,-480.5 540,-480.5 540,-474.5 546,-468.5 552,-468.5 552,-468.5 660,-468.5 660,-468.5 666,-468.5 672,-474.5 672,-480.5 672,-480.5 672,-524.5 672,-524.5 672,-530.5 666,-536.5 660,-536.5"/>
<text text-anchor="middle" x="606" y="-521.3" font-family="Helvetica,sans-Serif" font-size="14.00" fill="#000000">gini = 0.0</text>
<text text-anchor="middle" x="606" y="-506.3" font-family="Helvetica,sans-Serif" font-size="14.00" fill="#000000">samples = 1</text>
<text text-anchor="middle" x="606" y="-491.3" font-family="Helvetica,sans-Serif" font-size="14.00" fill="#000000">value = [0, 5, 0]</text>
<text text-anchor="middle" x="606" y="-476.3" font-family="Helvetica,sans-Serif" font-size="14.00" fill="#000000">class = 1</text>
</g>
<!-- 15&#45;&gt;16 -->
<g id="edge16" class="edge">
<title>15&#45;&gt;16</title>
<path fill="none" stroke="#000000" d="M680.7786,-579.8796C669.6208,-568.3337 657.5061,-555.7976 646.3414,-544.2446"/>
<polygon fill="#000000" stroke="#000000" points="648.6275,-541.5736 639.1615,-536.8149 643.5939,-546.4381 648.6275,-541.5736"/>
</g>
<!-- 17 -->
<g id="node18" class="node">
<title>17</title>
<path fill="#8139e5" stroke="#000000" d="M810,-536.5C810,-536.5 702,-536.5 702,-536.5 696,-536.5 690,-530.5 690,-524.5 690,-524.5 690,-480.5 690,-480.5 690,-474.5 696,-468.5 702,-468.5 702,-468.5 810,-468.5 810,-468.5 816,-468.5 822,-474.5 822,-480.5 822,-480.5 822,-524.5 822,-524.5 822,-530.5 816,-536.5 810,-536.5"/>
<text text-anchor="middle" x="756" y="-521.3" font-family="Helvetica,sans-Serif" font-size="14.00" fill="#000000">gini = 0.0</text>
<text text-anchor="middle" x="756" y="-506.3" font-family="Helvetica,sans-Serif" font-size="14.00" fill="#000000">samples = 4</text>
<text text-anchor="middle" x="756" y="-491.3" font-family="Helvetica,sans-Serif" font-size="14.00" fill="#000000">value = [0, 0, 6]</text>
<text text-anchor="middle" x="756" y="-476.3" font-family="Helvetica,sans-Serif" font-size="14.00" fill="#000000">class = 2</text>
</g>
<!-- 15&#45;&gt;17 -->
<g id="edge17" class="edge">
<title>15&#45;&gt;17</title>
<path fill="none" stroke="#000000" d="M733.2413,-579.8796C736.4108,-569.1034 739.8339,-557.4647 743.0389,-546.5677"/>
<polygon fill="#000000" stroke="#000000" points="746.4434,-547.3962 745.9074,-536.8149 739.7279,-545.421 746.4434,-547.3962"/>
</g>
<!-- 19 -->
<g id="node20" class="node">
<title>19</title>
<path fill="#39e581" fill-opacity="0.149020" stroke="#000000" d="M1217.5,-663C1217.5,-663 886.5,-663 886.5,-663 880.5,-663 874.5,-657 874.5,-651 874.5,-651 874.5,-592 874.5,-592 874.5,-586 880.5,-580 886.5,-580 886.5,-580 1217.5,-580 1217.5,-580 1223.5,-580 1229.5,-586 1229.5,-592 1229.5,-592 1229.5,-651 1229.5,-651 1229.5,-657 1223.5,-663 1217.5,-663"/>
<text text-anchor="middle" x="1052" y="-647.8" font-family="Helvetica,sans-Serif" font-size="14.00" fill="#000000">No..of.Nucleus.without.coexpression &lt;= &#45;0.339</text>
<text text-anchor="middle" x="1052" y="-632.8" font-family="Helvetica,sans-Serif" font-size="14.00" fill="#000000">gini = 0.497</text>
<text text-anchor="middle" x="1052" y="-617.8" font-family="Helvetica,sans-Serif" font-size="14.00" fill="#000000">samples = 35</text>
<text text-anchor="middle" x="1052" y="-602.8" font-family="Helvetica,sans-Serif" font-size="14.00" fill="#000000">value = [0, 27, 23]</text>
<text text-anchor="middle" x="1052" y="-587.8" font-family="Helvetica,sans-Serif" font-size="14.00" fill="#000000">class = 1</text>
</g>
<!-- 18&#45;&gt;19 -->
<g id="edge19" class="edge">
<title>18&#45;&gt;19</title>
<path fill="none" stroke="#000000" d="M1052,-698.8796C1052,-690.6838 1052,-681.9891 1052,-673.5013"/>
<polygon fill="#000000" stroke="#000000" points="1055.5001,-673.298 1052,-663.2981 1048.5001,-673.2981 1055.5001,-673.298"/>
</g>
<!-- 28 -->
<g id="node29" class="node">
<title>28</title>
<path fill="#39e581" fill-opacity="0.921569" stroke="#000000" d="M1672,-663C1672,-663 1346,-663 1346,-663 1340,-663 1334,-657 1334,-651 1334,-651 1334,-592 1334,-592 1334,-586 1340,-580 1346,-580 1346,-580 1672,-580 1672,-580 1678,-580 1684,-586 1684,-592 1684,-592 1684,-651 1684,-651 1684,-657 1678,-663 1672,-663"/>
<text text-anchor="middle" x="1509" y="-647.8" font-family="Helvetica,sans-Serif" font-size="14.00" fill="#000000">No..of.Nucleus.without.coexpression &lt;= 2.697</text>
<text text-anchor="middle" x="1509" y="-632.8" font-family="Helvetica,sans-Serif" font-size="14.00" fill="#000000">gini = 0.133</text>
<text text-anchor="middle" x="1509" y="-617.8" font-family="Helvetica,sans-Serif" font-size="14.00" fill="#000000">samples = 9</text>
<text text-anchor="middle" x="1509" y="-602.8" font-family="Helvetica,sans-Serif" font-size="14.00" fill="#000000">value = [0, 13, 1]</text>
<text text-anchor="middle" x="1509" y="-587.8" font-family="Helvetica,sans-Serif" font-size="14.00" fill="#000000">class = 1</text>
</g>
<!-- 18&#45;&gt;28 -->
<g id="edge28" class="edge">
<title>18&#45;&gt;28</title>
<path fill="none" stroke="#000000" d="M1211.5156,-698.9631C1252.9626,-688.1706 1297.7511,-676.5079 1339.6836,-665.5889"/>
<polygon fill="#000000" stroke="#000000" points="1340.6324,-668.9587 1349.4277,-663.0516 1338.8684,-662.1846 1340.6324,-668.9587"/>
</g>
<!-- 20 -->
<g id="node21" class="node">
<title>20</title>
<path fill="#39e581" fill-opacity="0.345098" stroke="#000000" d="M1183.5,-544C1183.5,-544 852.5,-544 852.5,-544 846.5,-544 840.5,-538 840.5,-532 840.5,-532 840.5,-473 840.5,-473 840.5,-467 846.5,-461 852.5,-461 852.5,-461 1183.5,-461 1183.5,-461 1189.5,-461 1195.5,-467 1195.5,-473 1195.5,-473 1195.5,-532 1195.5,-532 1195.5,-538 1189.5,-544 1183.5,-544"/>
<text text-anchor="middle" x="1018" y="-528.8" font-family="Helvetica,sans-Serif" font-size="14.00" fill="#000000">No..of.Nucleus.without.coexpression &lt;= &#45;0.383</text>
<text text-anchor="middle" x="1018" y="-513.8" font-family="Helvetica,sans-Serif" font-size="14.00" fill="#000000">gini = 0.478</text>
<text text-anchor="middle" x="1018" y="-498.8" font-family="Helvetica,sans-Serif" font-size="14.00" fill="#000000">samples = 30</text>
<text text-anchor="middle" x="1018" y="-483.8" font-family="Helvetica,sans-Serif" font-size="14.00" fill="#000000">value = [0, 26, 17]</text>
<text text-anchor="middle" x="1018" y="-468.8" font-family="Helvetica,sans-Serif" font-size="14.00" fill="#000000">class = 1</text>
</g>
<!-- 19&#45;&gt;20 -->
<g id="edge20" class="edge">
<title>19&#45;&gt;20</title>
<path fill="none" stroke="#000000" d="M1040.1084,-579.8796C1037.7153,-571.5037 1035.1733,-562.6067 1032.6977,-553.942"/>
<polygon fill="#000000" stroke="#000000" points="1036.0549,-552.9518 1029.9423,-544.2981 1029.3243,-554.8749 1036.0549,-552.9518"/>
</g>
<!-- 25 -->
<g id="node26" class="node">
<title>25</title>
<path fill="#8139e5" fill-opacity="0.831373" stroke="#000000" d="M1408,-544C1408,-544 1226,-544 1226,-544 1220,-544 1214,-538 1214,-532 1214,-532 1214,-473 1214,-473 1214,-467 1220,-461 1226,-461 1226,-461 1408,-461 1408,-461 1414,-461 1420,-467 1420,-473 1420,-473 1420,-532 1420,-532 1420,-538 1414,-544 1408,-544"/>
<text text-anchor="middle" x="1317" y="-528.8" font-family="Helvetica,sans-Serif" font-size="14.00" fill="#000000">No..of.MCM2..ve &lt;= 0.294</text>
<text text-anchor="middle" x="1317" y="-513.8" font-family="Helvetica,sans-Serif" font-size="14.00" fill="#000000">gini = 0.245</text>
<text text-anchor="middle" x="1317" y="-498.8" font-family="Helvetica,sans-Serif" font-size="14.00" fill="#000000">samples = 5</text>
<text text-anchor="middle" x="1317" y="-483.8" font-family="Helvetica,sans-Serif" font-size="14.00" fill="#000000">value = [0, 1, 6]</text>
<text text-anchor="middle" x="1317" y="-468.8" font-family="Helvetica,sans-Serif" font-size="14.00" fill="#000000">class = 2</text>
</g>
<!-- 19&#45;&gt;25 -->
<g id="edge25" class="edge">
<title>19&#45;&gt;25</title>
<path fill="none" stroke="#000000" d="M1144.6841,-579.8796C1167.4793,-569.6433 1192.0077,-558.6286 1215.207,-548.2108"/>
<polygon fill="#000000" stroke="#000000" points="1216.6795,-551.3863 1224.3682,-544.0969 1213.812,-545.0006 1216.6795,-551.3863"/>
</g>
<!-- 21 -->
<g id="node22" class="node">
<title>21</title>
<path fill="#39e581" fill-opacity="0.192157" stroke="#000000" d="M959,-425C959,-425 817,-425 817,-425 811,-425 805,-419 805,-413 805,-413 805,-354 805,-354 805,-348 811,-342 817,-342 817,-342 959,-342 959,-342 965,-342 971,-348 971,-354 971,-354 971,-413 971,-413 971,-419 965,-425 959,-425"/>
<text text-anchor="middle" x="888" y="-409.8" font-family="Helvetica,sans-Serif" font-size="14.00" fill="#000000">Previos.BC &lt;= 0.686</text>
<text text-anchor="middle" x="888" y="-394.8" font-family="Helvetica,sans-Serif" font-size="14.00" fill="#000000">gini = 0.494</text>
<text text-anchor="middle" x="888" y="-379.8" font-family="Helvetica,sans-Serif" font-size="14.00" fill="#000000">samples = 27</text>
<text text-anchor="middle" x="888" y="-364.8" font-family="Helvetica,sans-Serif" font-size="14.00" fill="#000000">value = [0, 21, 17]</text>
<text text-anchor="middle" x="888" y="-349.8" font-family="Helvetica,sans-Serif" font-size="14.00" fill="#000000">class = 1</text>
</g>
<!-- 20&#45;&gt;21 -->
<g id="edge21" class="edge">
<title>20&#45;&gt;21</title>
<path fill="none" stroke="#000000" d="M972.5323,-460.8796C962.3983,-451.6031 951.566,-441.6874 941.1535,-432.1559"/>
<polygon fill="#000000" stroke="#000000" points="943.4013,-429.4685 933.6618,-425.2981 938.6748,-434.6319 943.4013,-429.4685"/>
</g>
<!-- 24 -->
<g id="node25" class="node">
<title>24</title>
<path fill="#39e581" stroke="#000000" d="M1109,-417.5C1109,-417.5 1001,-417.5 1001,-417.5 995,-417.5 989,-411.5 989,-405.5 989,-405.5 989,-361.5 989,-361.5 989,-355.5 995,-349.5 1001,-349.5 1001,-349.5 1109,-349.5 1109,-349.5 1115,-349.5 1121,-355.5 1121,-361.5 1121,-361.5 1121,-405.5 1121,-405.5 1121,-411.5 1115,-417.5 1109,-417.5"/>
<text text-anchor="middle" x="1055" y="-402.3" font-family="Helvetica,sans-Serif" font-size="14.00" fill="#000000">gini = 0.0</text>
<text text-anchor="middle" x="1055" y="-387.3" font-family="Helvetica,sans-Serif" font-size="14.00" fill="#000000">samples = 3</text>
<text text-anchor="middle" x="1055" y="-372.3" font-family="Helvetica,sans-Serif" font-size="14.00" fill="#000000">value = [0, 5, 0]</text>
<text text-anchor="middle" x="1055" y="-357.3" font-family="Helvetica,sans-Serif" font-size="14.00" fill="#000000">class = 1</text>
</g>
<!-- 20&#45;&gt;24 -->
<g id="edge24" class="edge">
<title>20&#45;&gt;24</title>
<path fill="none" stroke="#000000" d="M1030.9408,-460.8796C1034.2914,-450.1034 1037.9101,-438.4647 1041.2983,-427.5677"/>
<polygon fill="#000000" stroke="#000000" points="1044.7037,-428.4032 1044.3307,-417.8149 1038.0194,-426.3248 1044.7037,-428.4032"/>
</g>
<!-- 22 -->
<g id="node23" class="node">
<title>22</title>
<path fill="#39e581" stroke="#000000" d="M868.5,-298.5C868.5,-298.5 751.5,-298.5 751.5,-298.5 745.5,-298.5 739.5,-292.5 739.5,-286.5 739.5,-286.5 739.5,-242.5 739.5,-242.5 739.5,-236.5 745.5,-230.5 751.5,-230.5 751.5,-230.5 868.5,-230.5 868.5,-230.5 874.5,-230.5 880.5,-236.5 880.5,-242.5 880.5,-242.5 880.5,-286.5 880.5,-286.5 880.5,-292.5 874.5,-298.5 868.5,-298.5"/>
<text text-anchor="middle" x="810" y="-283.3" font-family="Helvetica,sans-Serif" font-size="14.00" fill="#000000">gini = 0.0</text>
<text text-anchor="middle" x="810" y="-268.3" font-family="Helvetica,sans-Serif" font-size="14.00" fill="#000000">samples = 17</text>
<text text-anchor="middle" x="810" y="-253.3" font-family="Helvetica,sans-Serif" font-size="14.00" fill="#000000">value = [0, 21, 0]</text>
<text text-anchor="middle" x="810" y="-238.3" font-family="Helvetica,sans-Serif" font-size="14.00" fill="#000000">class = 1</text>
</g>
<!-- 21&#45;&gt;22 -->
<g id="edge22" class="edge">
<title>21&#45;&gt;22</title>
<path fill="none" stroke="#000000" d="M860.7194,-341.8796C853.3677,-330.6636 845.4036,-318.5131 838.0126,-307.2372"/>
<polygon fill="#000000" stroke="#000000" points="840.9014,-305.2598 832.4921,-298.8149 835.0469,-309.0972 840.9014,-305.2598"/>
</g>
<!-- 23 -->
<g id="node24" class="node">
<title>23</title>
<path fill="#8139e5" stroke="#000000" d="M1027.5,-298.5C1027.5,-298.5 910.5,-298.5 910.5,-298.5 904.5,-298.5 898.5,-292.5 898.5,-286.5 898.5,-286.5 898.5,-242.5 898.5,-242.5 898.5,-236.5 904.5,-230.5 910.5,-230.5 910.5,-230.5 1027.5,-230.5 1027.5,-230.5 1033.5,-230.5 1039.5,-236.5 1039.5,-242.5 1039.5,-242.5 1039.5,-286.5 1039.5,-286.5 1039.5,-292.5 1033.5,-298.5 1027.5,-298.5"/>
<text text-anchor="middle" x="969" y="-283.3" font-family="Helvetica,sans-Serif" font-size="14.00" fill="#000000">gini = 0.0</text>
<text text-anchor="middle" x="969" y="-268.3" font-family="Helvetica,sans-Serif" font-size="14.00" fill="#000000">samples = 10</text>
<text text-anchor="middle" x="969" y="-253.3" font-family="Helvetica,sans-Serif" font-size="14.00" fill="#000000">value = [0, 0, 17]</text>
<text text-anchor="middle" x="969" y="-238.3" font-family="Helvetica,sans-Serif" font-size="14.00" fill="#000000">class = 2</text>
</g>
<!-- 21&#45;&gt;23 -->
<g id="edge23" class="edge">
<title>21&#45;&gt;23</title>
<path fill="none" stroke="#000000" d="M916.3299,-341.8796C923.9643,-330.6636 932.2348,-318.5131 939.9099,-307.2372"/>
<polygon fill="#000000" stroke="#000000" points="942.9092,-309.0511 945.6428,-298.8149 937.1225,-305.1122 942.9092,-309.0511"/>
</g>
<!-- 26 -->
<g id="node27" class="node">
<title>26</title>
<path fill="#8139e5" stroke="#000000" d="M1333,-417.5C1333,-417.5 1225,-417.5 1225,-417.5 1219,-417.5 1213,-411.5 1213,-405.5 1213,-405.5 1213,-361.5 1213,-361.5 1213,-355.5 1219,-349.5 1225,-349.5 1225,-349.5 1333,-349.5 1333,-349.5 1339,-349.5 1345,-355.5 1345,-361.5 1345,-361.5 1345,-405.5 1345,-405.5 1345,-411.5 1339,-417.5 1333,-417.5"/>
<text text-anchor="middle" x="1279" y="-402.3" font-family="Helvetica,sans-Serif" font-size="14.00" fill="#000000">gini = 0.0</text>
<text text-anchor="middle" x="1279" y="-387.3" font-family="Helvetica,sans-Serif" font-size="14.00" fill="#000000">samples = 4</text>
<text text-anchor="middle" x="1279" y="-372.3" font-family="Helvetica,sans-Serif" font-size="14.00" fill="#000000">value = [0, 0, 6]</text>
<text text-anchor="middle" x="1279" y="-357.3" font-family="Helvetica,sans-Serif" font-size="14.00" fill="#000000">class = 2</text>
</g>
<!-- 25&#45;&gt;26 -->
<g id="edge26" class="edge">
<title>25&#45;&gt;26</title>
<path fill="none" stroke="#000000" d="M1303.7094,-460.8796C1300.2683,-450.1034 1296.5517,-438.4647 1293.0721,-427.5677"/>
<polygon fill="#000000" stroke="#000000" points="1296.3339,-426.2763 1289.9577,-417.8149 1289.6656,-428.4057 1296.3339,-426.2763"/>
</g>
<!-- 27 -->
<g id="node28" class="node">
<title>27</title>
<path fill="#39e581" stroke="#000000" d="M1483,-417.5C1483,-417.5 1375,-417.5 1375,-417.5 1369,-417.5 1363,-411.5 1363,-405.5 1363,-405.5 1363,-361.5 1363,-361.5 1363,-355.5 1369,-349.5 1375,-349.5 1375,-349.5 1483,-349.5 1483,-349.5 1489,-349.5 1495,-355.5 1495,-361.5 1495,-361.5 1495,-405.5 1495,-405.5 1495,-411.5 1489,-417.5 1483,-417.5"/>
<text text-anchor="middle" x="1429" y="-402.3" font-family="Helvetica,sans-Serif" font-size="14.00" fill="#000000">gini = 0.0</text>
<text text-anchor="middle" x="1429" y="-387.3" font-family="Helvetica,sans-Serif" font-size="14.00" fill="#000000">samples = 1</text>
<text text-anchor="middle" x="1429" y="-372.3" font-family="Helvetica,sans-Serif" font-size="14.00" fill="#000000">value = [0, 1, 0]</text>
<text text-anchor="middle" x="1429" y="-357.3" font-family="Helvetica,sans-Serif" font-size="14.00" fill="#000000">class = 1</text>
</g>
<!-- 25&#45;&gt;27 -->
<g id="edge27" class="edge">
<title>25&#45;&gt;27</title>
<path fill="none" stroke="#000000" d="M1356.1722,-460.8796C1367.0389,-449.3337 1378.8376,-436.7976 1389.7109,-425.2446"/>
<polygon fill="#000000" stroke="#000000" points="1392.3986,-427.4958 1396.7036,-417.8149 1387.3012,-422.6982 1392.3986,-427.4958"/>
</g>
<!-- 29 -->
<g id="node30" class="node">
<title>29</title>
<path fill="#39e581" stroke="#000000" d="M1567.5,-536.5C1567.5,-536.5 1450.5,-536.5 1450.5,-536.5 1444.5,-536.5 1438.5,-530.5 1438.5,-524.5 1438.5,-524.5 1438.5,-480.5 1438.5,-480.5 1438.5,-474.5 1444.5,-468.5 1450.5,-468.5 1450.5,-468.5 1567.5,-468.5 1567.5,-468.5 1573.5,-468.5 1579.5,-474.5 1579.5,-480.5 1579.5,-480.5 1579.5,-524.5 1579.5,-524.5 1579.5,-530.5 1573.5,-536.5 1567.5,-536.5"/>
<text text-anchor="middle" x="1509" y="-521.3" font-family="Helvetica,sans-Serif" font-size="14.00" fill="#000000">gini = 0.0</text>
<text text-anchor="middle" x="1509" y="-506.3" font-family="Helvetica,sans-Serif" font-size="14.00" fill="#000000">samples = 8</text>
<text text-anchor="middle" x="1509" y="-491.3" font-family="Helvetica,sans-Serif" font-size="14.00" fill="#000000">value = [0, 13, 0]</text>
<text text-anchor="middle" x="1509" y="-476.3" font-family="Helvetica,sans-Serif" font-size="14.00" fill="#000000">class = 1</text>
</g>
<!-- 28&#45;&gt;29 -->
<g id="edge29" class="edge">
<title>28&#45;&gt;29</title>
<path fill="none" stroke="#000000" d="M1509,-579.8796C1509,-569.2134 1509,-557.7021 1509,-546.9015"/>
<polygon fill="#000000" stroke="#000000" points="1512.5001,-546.8149 1509,-536.8149 1505.5001,-546.815 1512.5001,-546.8149"/>
</g>
<!-- 30 -->
<g id="node31" class="node">
<title>30</title>
<path fill="#8139e5" stroke="#000000" d="M1718,-536.5C1718,-536.5 1610,-536.5 1610,-536.5 1604,-536.5 1598,-530.5 1598,-524.5 1598,-524.5 1598,-480.5 1598,-480.5 1598,-474.5 1604,-468.5 1610,-468.5 1610,-468.5 1718,-468.5 1718,-468.5 1724,-468.5 1730,-474.5 1730,-480.5 1730,-480.5 1730,-524.5 1730,-524.5 1730,-530.5 1724,-536.5 1718,-536.5"/>
<text text-anchor="middle" x="1664" y="-521.3" font-family="Helvetica,sans-Serif" font-size="14.00" fill="#000000">gini = 0.0</text>
<text text-anchor="middle" x="1664" y="-506.3" font-family="Helvetica,sans-Serif" font-size="14.00" fill="#000000">samples = 1</text>
<text text-anchor="middle" x="1664" y="-491.3" font-family="Helvetica,sans-Serif" font-size="14.00" fill="#000000">value = [0, 0, 1]</text>
<text text-anchor="middle" x="1664" y="-476.3" font-family="Helvetica,sans-Serif" font-size="14.00" fill="#000000">class = 2</text>
</g>
<!-- 28&#45;&gt;30 -->
<g id="edge30" class="edge">
<title>28&#45;&gt;30</title>
<path fill="none" stroke="#000000" d="M1563.2115,-579.8796C1578.8231,-567.8938 1595.8247,-554.841 1611.3408,-542.9287"/>
<polygon fill="#000000" stroke="#000000" points="1613.5035,-545.6808 1619.3041,-536.8149 1609.2407,-540.1285 1613.5035,-545.6808"/>
</g>
</g>
</svg>
